<svg width="240" height="70" viewBox="0 0 240 70" fill="none" xmlns="http://www.w3.org/2000/svg">
<path d="M238.667 61.3378C238.667 65.0327 235.612 68.0256 231.833 68.0256H8.17722C4.39998 68.0256 1.33398 65.0327 1.33398 61.3378V8.00509C1.33398 4.31198 4.39998 1.30859 8.17722 1.30859H231.831C235.612 1.30859 238.666 4.31198 238.666 8.00509L238.667 61.3378Z" fill="black"/>
<path d="M231.111 1.38949C235.227 1.38949 238.576 4.65466 238.576 8.66732V60.6673C238.576 64.68 235.227 67.9452 231.111 67.9452H8.88889C4.77333 67.9452 1.42444 64.68 1.42444 60.6673V8.66732C1.42444 4.65466 4.77333 1.38949 8.88889 1.38949H231.111ZM231.111 0.000656128H8.88889C4.00222 0.000656128 0 3.90282 0 8.66732V60.6673C0 65.4318 4.00222 69.334 8.88889 69.334H231.111C235.998 69.334 240 65.4318 240 60.6673V8.66732C240 3.90282 235.998 0.000656128 231.111 0.000656128Z" fill="#A6A6A6"/>
<path d="M53.5619 34.2915C53.5104 28.705 58.2535 25.9871 58.4704 25.8606C55.7841 22.0421 51.6206 21.5203 50.1575 21.4787C46.6606 21.1199 43.2686 23.5189 41.4872 23.5189C39.6704 23.5189 36.9272 21.5134 33.9708 21.5723C30.1664 21.6295 26.6072 23.7771 24.6552 27.1121C20.6268 33.9119 23.6312 43.9046 27.4908 49.401C29.4215 52.0929 31.6775 55.0985 34.6304 54.9927C37.5192 54.8766 38.5984 53.197 42.0846 53.197C45.5388 53.197 46.5521 54.9927 49.5637 54.9251C52.6641 54.8766 54.6161 52.2211 56.4792 49.505C58.7104 46.4197 59.6064 43.3811 59.6419 43.2251C59.569 43.2009 53.6206 40.9874 53.5619 34.2915Z" fill="white"/>
<path d="M47.873 17.863C49.4268 15.9685 50.4899 13.391 50.1948 10.7754C47.9459 10.8725 45.1335 12.2921 43.5139 14.145C42.081 15.7778 40.801 18.4541 41.1317 20.9709C43.6579 21.1546 46.2517 19.7281 47.873 17.863Z" fill="white"/>
<path d="M87.1983 17.3478C87.1983 19.3879 86.5708 20.9236 85.3174 21.955C84.1565 22.9066 82.5068 23.3832 80.3699 23.3832C79.3103 23.3832 78.4036 23.3382 77.6445 23.248V12.101C78.6348 11.945 79.7014 11.8652 80.8534 11.8652C82.889 11.8652 84.4232 12.2968 85.4579 13.16C86.617 14.1359 87.1983 15.5312 87.1983 17.3478ZM85.2339 17.398C85.2339 16.0755 84.8748 15.0615 84.1565 14.3543C83.4383 13.6488 82.3894 13.2952 81.0081 13.2952C80.4214 13.2952 79.9219 13.3334 79.5076 13.4131V21.8874C79.737 21.922 80.1565 21.9376 80.7663 21.9376C82.1921 21.9376 83.2925 21.5511 84.0677 20.778C84.8428 20.005 85.2339 18.8783 85.2339 17.398Z" fill="white"/>
<path d="M97.6143 19.1296C97.6143 20.3862 97.2463 21.4158 96.5103 22.2236C95.7387 23.0538 94.7165 23.4681 93.44 23.4681C92.2098 23.4681 91.2303 23.0712 90.4996 22.2738C89.7707 21.4782 89.4062 20.4746 89.4062 19.2648C89.4062 17.9994 89.7814 16.9612 90.5351 16.1552C91.2889 15.3492 92.3023 14.9453 93.5787 14.9453C94.8089 14.9453 95.7974 15.3422 96.5458 16.1378C97.2569 16.9109 97.6143 17.9093 97.6143 19.1296ZM95.6818 19.1885C95.6818 18.4345 95.5147 17.788 95.1823 17.2489C94.7911 16.5972 94.2347 16.2713 93.5111 16.2713C92.7627 16.2713 92.1938 16.5972 91.8027 17.2489C91.4685 17.788 91.3031 18.4449 91.3031 19.2214C91.3031 19.9754 91.4703 20.622 91.8027 21.161C92.2063 21.8128 92.768 22.1386 93.4934 22.1386C94.2045 22.1386 94.7627 21.8076 95.1645 21.1437C95.5094 20.5942 95.6818 19.9425 95.6818 19.1885Z" fill="white"/>
<path d="M111.58 15.1133L108.957 23.2842H107.251L106.165 19.7361C105.889 18.8503 105.665 17.9698 105.491 17.0962H105.457C105.295 17.9941 105.071 18.8729 104.783 19.7361L103.629 23.2842H101.903L99.4375 15.1133H101.352L102.3 18.9977C102.529 19.9163 102.717 20.7917 102.869 21.6202H102.902C103.041 20.9373 103.27 20.0671 103.594 19.015L104.783 15.115H106.301L107.441 18.9318C107.717 19.8626 107.941 20.7587 108.113 21.6219H108.165C108.291 20.7813 108.481 19.8851 108.733 18.9318L109.75 15.115H111.58V15.1133Z" fill="white"/>
<path d="M121.24 23.2839H119.377V18.6039C119.377 17.1618 118.815 16.4407 117.688 16.4407C117.135 16.4407 116.689 16.6383 116.343 17.0353C115.999 17.4322 115.825 17.9002 115.825 18.4358V23.2822H113.962V17.4478C113.962 16.7302 113.939 15.9519 113.895 15.1095H115.532L115.619 16.387H115.671C115.887 15.9901 116.211 15.6625 116.636 15.4007C117.141 15.0957 117.706 14.9414 118.325 14.9414C119.107 14.9414 119.758 15.1875 120.275 15.6815C120.919 16.2865 121.24 17.1895 121.24 18.389V23.2839V23.2839Z" fill="white"/>
<path d="M126.377 23.2834H124.516V11.3633H126.377V23.2834Z" fill="white"/>
<path d="M137.345 19.1296C137.345 20.3862 136.977 21.4158 136.241 22.2236C135.469 23.0538 134.445 23.4681 133.171 23.4681C131.939 23.4681 130.959 23.0712 130.23 22.2738C129.501 21.4782 129.137 20.4746 129.137 19.2648C129.137 17.9994 129.512 16.9612 130.266 16.1552C131.019 15.3492 132.033 14.9453 133.307 14.9453C134.539 14.9453 135.526 15.3422 136.276 16.1378C136.987 16.9109 137.345 17.9093 137.345 19.1296ZM135.41 19.1885C135.41 18.4345 135.243 17.788 134.911 17.2489C134.522 16.5972 133.963 16.2713 133.242 16.2713C132.491 16.2713 131.922 16.5972 131.533 17.2489C131.199 17.788 131.034 18.4449 131.034 19.2214C131.034 19.9754 131.201 20.622 131.533 21.161C131.937 21.8128 132.499 22.1386 133.224 22.1386C133.935 22.1386 134.491 21.8076 134.893 21.1437C135.24 20.5942 135.41 19.9425 135.41 19.1885Z" fill="white"/>
<path d="M146.362 23.2826H144.69L144.551 22.3414H144.499C143.927 23.092 143.111 23.4681 142.051 23.4681C141.26 23.4681 140.62 23.2202 140.138 22.728C139.701 22.2808 139.482 21.7244 139.482 21.064C139.482 20.0656 139.909 19.3046 140.768 18.7777C141.625 18.2508 142.83 17.9925 144.382 18.0046V17.8521C144.382 16.7757 143.802 16.2384 142.642 16.2384C141.815 16.2384 141.086 16.4412 140.457 16.8433L140.078 15.6508C140.857 15.181 141.818 14.9453 142.953 14.9453C145.143 14.9453 146.242 16.072 146.242 18.3253V21.3344C146.242 22.1508 146.282 22.8008 146.362 23.2826ZM144.428 20.4746V19.2145C142.373 19.1798 141.346 19.7293 141.346 20.8612C141.346 21.2876 141.463 21.6065 141.703 21.8197C141.943 22.0329 142.249 22.1386 142.613 22.1386C143.022 22.1386 143.404 22.0121 143.753 21.7608C144.103 21.5077 144.318 21.187 144.398 20.7936C144.418 20.7052 144.428 20.5977 144.428 20.4746Z" fill="white"/>
<path d="M156.949 23.2834H155.296L155.209 21.9713H155.157C154.629 22.9697 153.73 23.4689 152.466 23.4689C151.456 23.4689 150.615 23.0823 149.948 22.3093C149.282 21.5362 148.949 20.5326 148.949 19.3002C148.949 17.9777 149.31 16.9065 150.035 16.0883C150.738 15.3257 151.598 14.9443 152.622 14.9443C153.747 14.9443 154.535 15.3135 154.983 16.0537H155.019V11.3633H156.883V21.0821C156.883 21.8777 156.905 22.6109 156.949 23.2834ZM155.019 19.8375V18.4751C155.019 18.2394 155.001 18.0487 154.967 17.9031C154.862 17.4663 154.636 17.0989 154.293 16.8025C153.947 16.5061 153.529 16.357 153.047 16.357C152.352 16.357 151.808 16.6257 151.408 17.1647C151.011 17.7038 150.811 18.3919 150.811 19.2326C150.811 20.0403 151.001 20.6955 151.383 21.1999C151.787 21.7373 152.331 22.0059 153.011 22.0059C153.623 22.0059 154.112 21.7823 154.483 21.3334C154.843 20.9191 155.019 20.4199 155.019 19.8375Z" fill="white"/>
<path d="M172.884 19.1296C172.884 20.3862 172.516 21.4158 171.78 22.2236C171.008 23.0538 169.988 23.4681 168.71 23.4681C167.481 23.4681 166.502 23.0712 165.769 22.2738C165.04 21.4782 164.676 20.4746 164.676 19.2648C164.676 17.9994 165.051 16.9612 165.805 16.1552C166.558 15.3492 167.572 14.9453 168.85 14.9453C170.078 14.9453 171.069 15.3422 171.815 16.1378C172.526 16.9109 172.884 17.9093 172.884 19.1296ZM170.953 19.1885C170.953 18.4345 170.786 17.788 170.454 17.2489C170.061 16.5972 169.506 16.2713 168.781 16.2713C168.034 16.2713 167.465 16.5972 167.072 17.2489C166.738 17.788 166.573 18.4449 166.573 19.2214C166.573 19.9754 166.74 20.622 167.072 21.161C167.476 21.8128 168.038 22.1386 168.763 22.1386C169.474 22.1386 170.034 21.8076 170.436 21.1437C170.779 20.5942 170.953 19.9425 170.953 19.1885Z" fill="white"/>
<path d="M182.903 23.2839H181.041V18.6039C181.041 17.1618 180.479 16.4407 179.351 16.4407C178.798 16.4407 178.351 16.6383 178.007 17.0353C177.662 17.4322 177.489 17.9002 177.489 18.4358V23.2822H175.624V17.4478C175.624 16.7302 175.603 15.9519 175.559 15.1095H177.194L177.281 16.387H177.333C177.551 15.9901 177.875 15.6625 178.298 15.4007C178.805 15.0957 179.368 14.9414 179.989 14.9414C180.769 14.9414 181.42 15.1875 181.937 15.6815C182.583 16.2865 182.903 17.1895 182.903 18.389V23.2839V23.2839Z" fill="white"/>
<path d="M195.44 16.4737H193.388V20.4431C193.388 21.4519 193.753 21.9563 194.475 21.9563C194.809 21.9563 195.086 21.9285 195.305 21.8713L195.353 23.2493C194.985 23.3845 194.501 23.4521 193.906 23.4521C193.17 23.4521 192.597 23.2337 192.183 22.7969C191.767 22.3601 191.561 21.6252 191.561 20.5939V16.4737H190.336V15.1131H191.561V13.6155L193.387 13.0781V15.1113H195.438V16.4737H195.44Z" fill="white"/>
<path d="M205.304 23.2834H203.439V18.6381C203.439 17.1734 202.877 16.4402 201.752 16.4402C200.888 16.4402 200.297 16.8649 199.974 17.7142C199.919 17.8927 199.887 18.1111 199.887 18.3677V23.2817H198.025V11.3633H199.887V16.2877H199.922C200.509 15.3915 201.35 14.9443 202.44 14.9443C203.211 14.9443 203.849 15.1905 204.356 15.6845C204.987 16.2998 205.304 17.215 205.304 18.4249V23.2834V23.2834Z" fill="white"/>
<path d="M215.478 18.8106C215.478 19.1365 215.453 19.4104 215.409 19.634H209.821C209.846 20.4417 210.113 21.057 210.63 21.4834C211.103 21.8648 211.713 22.0554 212.459 22.0554C213.286 22.0554 214.04 21.9272 214.719 21.6689L215.01 22.9308C214.216 23.267 213.281 23.4352 212.198 23.4352C210.9 23.4352 209.878 23.0625 209.138 22.3172C208.395 21.5718 208.027 20.5717 208.027 19.3168C208.027 18.0844 208.37 17.0582 209.062 16.2401C209.784 15.3665 210.76 14.9297 211.992 14.9297C213.197 14.9297 214.113 15.3665 214.731 16.2401C215.231 16.9334 215.478 17.7914 215.478 18.8106ZM213.7 18.3409C213.714 17.8018 213.592 17.3373 213.339 16.9456C213.016 16.4412 212.523 16.1881 211.857 16.1881C211.249 16.1881 210.753 16.4342 210.374 16.9282C210.065 17.3217 209.882 17.7914 209.821 18.3409H213.7Z" fill="white"/>
<path d="M95.3679 54.6063H91.3305L89.119 47.8307H81.4319L79.3252 54.6063H75.3945L83.0105 31.5391H87.7145L95.3679 54.6063ZM88.4523 44.988L86.4523 38.9647C86.2408 38.3493 85.8443 36.9003 85.2594 34.6192H85.1883C84.9554 35.6003 84.5803 37.0493 84.0647 38.9647L82.1003 44.988H88.4523V44.988Z" fill="white"/>
<path d="M114.954 46.0843C114.954 48.9131 114.17 51.1491 112.602 52.7906C111.197 54.2518 109.453 54.9815 107.372 54.9815C105.124 54.9815 103.51 54.1946 102.527 52.6207H102.456V61.3827H98.6658V43.4479C98.6658 41.6695 98.6178 39.8443 98.5254 37.9723H101.859L102.07 40.6087H102.141C103.405 38.6223 105.324 37.6309 107.898 37.6309C109.91 37.6309 111.59 38.4057 112.934 39.957C114.282 41.5101 114.954 43.5519 114.954 46.0843ZM111.092 46.2195C111.092 44.6006 110.719 43.2659 109.969 42.2155C109.149 41.1201 108.049 40.5723 106.669 40.5723C105.734 40.5723 104.884 40.8774 104.125 41.4789C103.364 42.0855 102.867 42.8777 102.634 43.8587C102.516 44.3163 102.458 44.6907 102.458 44.9854V47.7587C102.458 48.9686 102.838 49.9895 103.599 50.8233C104.36 51.657 105.348 52.073 106.564 52.073C107.992 52.073 109.103 51.5357 109.898 50.4645C110.694 49.3915 111.092 47.9771 111.092 46.2195Z" fill="white"/>
<path d="M134.575 46.0843C134.575 48.9131 133.791 51.1491 132.221 52.7906C130.819 54.2518 129.075 54.9815 126.993 54.9815C124.746 54.9815 123.132 54.1946 122.15 52.6207H122.079V61.3827H118.289V43.4479C118.289 41.6695 118.241 39.8443 118.148 37.9723H121.482L121.693 40.6087H121.764C123.027 38.6223 124.945 37.6309 127.521 37.6309C129.532 37.6309 131.212 38.4057 132.559 39.957C133.901 41.5101 134.575 43.5519 134.575 46.0843ZM130.714 46.2195C130.714 44.6006 130.339 43.2659 129.588 42.2155C128.769 41.1201 127.672 40.5723 126.291 40.5723C125.354 40.5723 124.506 40.8774 123.745 41.4789C122.984 42.0855 122.488 42.8777 122.255 43.8587C122.14 44.3163 122.079 44.6907 122.079 44.9854V47.7587C122.079 48.9686 122.46 49.9895 123.217 50.8233C123.978 51.6553 124.966 52.073 126.186 52.073C127.613 52.073 128.724 51.5357 129.519 50.4645C130.316 49.3915 130.714 47.9771 130.714 46.2195Z" fill="white"/>
<path d="M156.513 48.1376C156.513 50.0997 155.815 51.6961 154.412 52.9285C152.871 54.2753 150.725 54.9478 147.968 54.9478C145.422 54.9478 143.381 54.4694 141.836 53.5109L142.714 50.4308C144.378 51.4118 146.204 51.9041 148.193 51.9041C149.621 51.9041 150.732 51.5886 151.53 50.9612C152.325 50.3337 152.721 49.4913 152.721 48.4409C152.721 47.5049 152.394 46.7162 151.738 46.0766C151.086 45.437 149.996 44.8425 148.474 44.293C144.332 42.7868 142.263 40.5802 142.263 37.6786C142.263 35.7824 142.988 34.2276 144.44 33.0177C145.888 31.8061 147.818 31.2012 150.232 31.2012C152.385 31.2012 154.174 31.5669 155.601 32.2966L154.654 35.3092C153.32 34.602 151.813 34.2484 150.126 34.2484C148.792 34.2484 147.751 34.569 147.004 35.2069C146.373 35.7772 146.056 36.4722 146.056 37.2956C146.056 38.2073 146.417 38.9613 147.143 39.5541C147.774 40.1018 148.92 40.6946 150.584 41.3342C152.62 42.1333 154.115 43.0676 155.077 44.1388C156.035 45.2065 156.513 46.5429 156.513 48.1376Z" fill="white"/>
<path d="M169.044 40.7459H164.866V48.8215C164.866 50.8755 165.602 51.9016 167.077 51.9016C167.755 51.9016 168.317 51.8444 168.761 51.73L168.866 54.5363C168.119 54.8084 167.136 54.9453 165.918 54.9453C164.421 54.9453 163.252 54.4999 162.407 53.6107C161.566 52.7197 161.143 51.2256 161.143 49.1265V40.7424H158.654V37.9691H161.143V34.9236L164.866 33.8281V37.9691H169.044V40.7459Z" fill="white"/>
<path d="M187.893 46.1521C187.893 48.7088 187.143 50.8079 185.646 52.4493C184.076 54.1393 181.992 54.9817 179.395 54.9817C176.892 54.9817 174.899 54.1723 173.413 52.5533C171.927 50.9344 171.184 48.8908 171.184 46.4277C171.184 43.8503 171.948 41.7391 173.482 40.0976C175.013 38.4544 177.079 37.6328 179.676 37.6328C182.179 37.6328 184.193 38.4423 185.713 40.0629C187.168 41.6351 187.893 43.6648 187.893 46.1521ZM183.96 46.2717C183.96 44.7377 183.624 43.4221 182.944 42.3249C182.149 40.9972 181.013 40.3351 179.541 40.3351C178.017 40.3351 176.86 40.9989 176.065 42.3249C175.384 43.4239 175.048 44.7603 175.048 46.3411C175.048 47.8751 175.384 49.1907 176.065 50.2861C176.885 51.6139 178.03 52.276 179.507 52.276C180.954 52.276 182.09 51.6 182.91 50.2515C183.608 49.1335 183.96 47.804 183.96 46.2717Z" fill="white"/>
<path d="M200.215 41.2223C199.84 41.1547 199.44 41.1201 199.02 41.1201C197.687 41.1201 196.656 41.6106 195.931 42.5934C195.299 43.4601 194.983 44.5555 194.983 45.8781V54.6054H191.195L191.23 43.2105C191.23 41.2934 191.182 39.5479 191.088 37.9741H194.389L194.528 41.1565H194.633C195.033 40.0627 195.664 39.1822 196.528 38.5218C197.372 37.9273 198.284 37.6309 199.267 37.6309C199.618 37.6309 199.934 37.6551 200.215 37.6985V41.2223Z" fill="white"/>
<path d="M217.165 45.5019C217.165 46.164 217.12 46.7221 217.026 47.178H205.655C205.7 48.8212 206.249 50.0779 207.305 50.9445C208.263 51.7193 209.503 52.1076 211.024 52.1076C212.708 52.1076 214.244 51.8459 215.625 51.3207L216.219 53.886C214.605 54.5724 212.699 54.9139 210.5 54.9139C207.855 54.9139 205.778 54.1547 204.267 52.638C202.759 51.1213 202.004 49.0847 202.004 46.5297C202.004 44.0216 202.706 41.9329 204.112 40.2672C205.584 38.4888 207.574 37.5996 210.077 37.5996C212.535 37.5996 214.397 38.4888 215.661 40.2672C216.662 41.6799 217.165 43.4271 217.165 45.5019ZM213.551 44.5433C213.575 43.4479 213.328 42.5015 212.815 41.7024C212.159 40.6745 211.151 40.1615 209.794 40.1615C208.555 40.1615 207.547 40.6624 206.777 41.6677C206.146 42.4668 205.771 43.4253 205.655 44.5416H213.551V44.5433Z" fill="white"/>
</svg>
