<svg width="240" height="70" viewBox="0 0 240 70" fill="none" xmlns="http://www.w3.org/2000/svg">
<path d="M231.111 69.334H8.88889C4.00222 69.334 0 65.4318 0 60.6673V8.66733C0 3.90283 4.00222 0.000659943 8.88889 0.000659943H231.111C235.998 0.000659943 240 3.90283 240 8.66733V60.6673C240 65.4318 235.998 69.334 231.111 69.334Z" fill="black"/>
<path d="M231.111 1.38949C235.227 1.38949 238.576 4.65466 238.576 8.66733V60.6673C238.576 64.68 235.227 67.9452 231.111 67.9452H8.88889C4.77333 67.9452 1.42444 64.68 1.42444 60.6673V8.66733C1.42444 4.65466 4.77333 1.38949 8.88889 1.38949H231.111ZM231.111 0.000659943H8.88889C4.00222 0.000659943 0 3.90283 0 8.66733V60.6673C0 65.4318 4.00222 69.334 8.88889 69.334H231.111C235.998 69.334 240 65.4318 240 60.6673V8.66733C240 3.90283 235.998 0.000659943 231.111 0.000659943Z" fill="#A6A6A6"/>
<path d="M18.551 13.066C18.0288 13.599 17.7266 14.4288 17.7266 15.5035V53.8361C17.7266 54.9108 18.0288 55.7406 18.551 56.2736L18.6799 56.3906L40.711 34.919V34.412L18.6799 12.9403L18.551 13.066Z" fill="url(#paint0_linear_898_7)"/>
<path d="M48.0465 42.0801L40.7109 34.9192V34.4122L48.0554 27.2514L48.2198 27.3446L56.9176 32.1697C59.3998 33.5391 59.3998 35.7924 56.9176 37.1704L48.2198 41.9869L48.0465 42.0801V42.0801Z" fill="url(#paint1_linear_898_7)"/>
<path d="M48.2197 41.987L40.7108 34.6658L18.5508 56.274C19.3752 57.119 20.7197 57.2208 22.2486 56.3758L48.2197 41.987" fill="url(#paint2_linear_898_7)"/>
<path d="M48.2197 27.3449L22.2486 12.956C20.7197 12.1197 19.3752 12.2215 18.5508 13.0665L40.7108 34.666L48.2197 27.3449Z" fill="url(#paint3_linear_898_7)"/>
<path d="M84.2998 17.7569C84.2998 19.2042 83.8554 20.3634 82.9798 21.2279C81.9731 22.2527 80.662 22.7684 79.0554 22.7684C77.5198 22.7684 76.2087 22.2441 75.1331 21.2106C74.0554 20.1619 73.5176 18.8749 73.5176 17.3344C73.5176 15.7939 74.0554 14.5069 75.1331 13.4669C76.2087 12.4247 77.5198 11.9004 79.0554 11.9004C79.8198 11.9004 80.5487 12.0542 81.2442 12.3402C81.9376 12.6284 82.502 13.0184 82.9109 13.4994L81.982 14.4137C81.2687 13.5926 80.2976 13.1874 79.0554 13.1874C77.9354 13.1874 76.9642 13.5687 76.1398 14.3379C75.3242 15.1092 74.9154 16.1081 74.9154 17.3344C74.9154 18.5607 75.3242 19.5682 76.1398 20.3396C76.9642 21.1001 77.9354 21.4901 79.0554 21.4901C80.2442 21.4901 81.2442 21.1001 82.0331 20.3309C82.5531 19.8217 82.8487 19.1197 82.9265 18.2227H79.0554V16.9704H84.2198C84.282 17.2412 84.2998 17.5034 84.2998 17.7569V17.7569Z" fill="white" stroke="white" stroke-width="0.0711111" stroke-miterlimit="10"/>
<path d="M92.492 13.4168H87.6409V16.7101H92.0142V17.9625H87.6409V21.2558H92.492V22.532H86.2676V12.1406H92.492V13.4168Z" fill="white" stroke="white" stroke-width="0.0711111" stroke-miterlimit="10"/>
<path d="M98.2747 22.532H96.9013V13.4168H93.9258V12.1406H101.252V13.4168H98.2747V22.532V22.532Z" fill="white" stroke="white" stroke-width="0.0711111" stroke-miterlimit="10"/>
<path d="M106.555 22.532V12.1406H107.926V22.532H106.555Z" fill="white" stroke="white" stroke-width="0.0711111" stroke-miterlimit="10"/>
<path d="M114.005 22.532H112.643V13.4168H109.656V12.1406H116.992V13.4168H114.005V22.532Z" fill="white" stroke="white" stroke-width="0.0711111" stroke-miterlimit="10"/>
<path d="M130.862 21.1932C129.811 22.2441 128.509 22.7684 126.955 22.7684C125.393 22.7684 124.091 22.2441 123.04 21.1932C121.991 20.1446 121.469 18.8576 121.469 17.3344C121.469 15.8112 121.991 14.5242 123.04 13.4756C124.091 12.4247 125.393 11.9004 126.955 11.9004C128.5 11.9004 129.802 12.4247 130.853 13.4842C131.911 14.5416 132.433 15.8199 132.433 17.3344C132.433 18.8576 131.911 20.1446 130.862 21.1932ZM124.055 20.3222C124.847 21.1001 125.809 21.4901 126.955 21.4901C128.093 21.4901 129.064 21.1001 129.847 20.3222C130.635 19.5444 131.035 18.5456 131.035 17.3344C131.035 16.1232 130.635 15.1244 129.847 14.3466C129.064 13.5687 128.093 13.1787 126.955 13.1787C125.809 13.1787 124.847 13.5687 124.055 14.3466C123.267 15.1244 122.867 16.1232 122.867 17.3344C122.867 18.5456 123.267 19.5444 124.055 20.3222V20.3222Z" fill="white" stroke="white" stroke-width="0.0711111" stroke-miterlimit="10"/>
<path d="M134.359 22.532V12.1406H136.026L141.208 20.2223H141.268L141.208 18.2246V12.1406H142.579V22.532H141.148L135.722 14.0516H135.662L135.722 16.058V22.532H134.359V22.532Z" fill="white" stroke="white" stroke-width="0.0711111" stroke-miterlimit="10"/>
<path d="M121.128 37.7031C116.952 37.7031 113.541 40.8014 113.541 45.0762C113.541 49.3164 116.952 52.4472 121.128 52.4472C125.312 52.4472 128.723 49.3164 128.723 45.0762C128.723 40.8014 125.312 37.7031 121.128 37.7031ZM121.128 49.5439C118.837 49.5439 116.866 47.7001 116.866 45.0762C116.866 42.4177 118.837 40.6064 121.128 40.6064C123.419 40.6064 125.399 42.4177 125.399 45.0762C125.399 47.7001 123.419 49.5439 121.128 49.5439V49.5439ZM104.575 37.7031C100.39 37.7031 96.9879 40.8014 96.9879 45.0762C96.9879 49.3164 100.39 52.4472 104.575 52.4472C108.757 52.4472 112.161 49.3164 112.161 45.0762C112.161 40.8014 108.757 37.7031 104.575 37.7031ZM104.575 49.5439C102.281 49.5439 100.303 47.7001 100.303 45.0762C100.303 42.4177 102.281 40.6064 104.575 40.6064C106.866 40.6064 108.837 42.4177 108.837 45.0762C108.837 47.7001 106.866 49.5439 104.575 49.5439ZM84.8768 39.9629V43.0959H92.5501C92.3256 44.8466 91.7256 46.1336 90.8056 47.0306C89.6856 48.1139 87.9412 49.3164 84.8768 49.3164C80.1545 49.3164 76.4568 45.6006 76.4568 40.9964C76.4568 36.3923 80.1545 32.6764 84.8768 32.6764C87.4301 32.6764 89.2879 33.6493 90.659 34.9103L92.9234 32.7024C91.0056 30.9171 88.4545 29.5456 84.8768 29.5456C78.4012 29.5456 72.959 34.6828 72.959 40.9964C72.959 47.3101 78.4012 52.4472 84.8768 52.4472C88.3768 52.4472 91.0056 51.3292 93.0723 49.2319C95.1901 47.1671 95.8501 44.2637 95.8501 41.9194C95.8501 41.1914 95.7879 40.5219 95.6768 39.9629H84.8768ZM165.423 42.3917C164.799 40.7429 162.872 37.7031 158.948 37.7031C155.059 37.7031 151.821 40.6909 151.821 45.0762C151.821 49.2059 155.026 52.4472 159.321 52.4472C162.795 52.4472 164.799 50.3824 165.623 49.1799L163.046 47.5051C162.186 48.7314 161.015 49.5439 159.321 49.5439C157.639 49.5439 156.432 48.7921 155.659 47.3101L165.772 43.2302L165.423 42.3917V42.3917ZM155.112 44.8466C155.026 42.0039 157.377 40.5479 159.061 40.5479C160.381 40.5479 161.501 41.1914 161.875 42.1122L155.112 44.8466V44.8466ZM146.892 51.9987H150.217V30.3321H146.892V51.9987ZM141.448 39.3454H141.337C140.59 38.4831 139.166 37.7031 137.361 37.7031C133.575 37.7031 130.112 40.9444 130.112 45.1001C130.112 49.2319 133.575 52.4472 137.361 52.4472C139.166 52.4472 140.59 51.6607 141.337 50.7724H141.448V51.8297C141.448 54.6486 139.903 56.1631 137.412 56.1631C135.381 56.1631 134.121 54.7331 133.601 53.5306L130.71 54.7071C131.543 56.6614 133.75 59.0664 137.412 59.0664C141.31 59.0664 144.599 56.8304 144.599 51.3899V38.1516H141.448V39.3454V39.3454ZM137.646 49.5439C135.355 49.5439 133.437 47.6741 133.437 45.1001C133.437 42.5022 135.355 40.6064 137.646 40.6064C139.903 40.6064 141.683 42.5022 141.683 45.1001C141.683 47.6741 139.903 49.5439 137.646 49.5439V49.5439ZM180.988 30.3321H173.037V51.9987H176.352V43.7892H180.988C184.67 43.7892 188.281 41.1914 188.281 37.0596C188.281 32.9299 184.661 30.3321 180.988 30.3321V30.3321ZM181.075 40.7754H176.352V33.3459H181.075C183.55 33.3459 184.963 35.3501 184.963 37.0596C184.963 38.7366 183.55 40.7754 181.075 40.7754ZM201.57 37.6619C199.174 37.6619 196.683 38.6932 195.659 40.9791L198.601 42.1816C199.235 40.9791 200.399 40.5891 201.63 40.5891C203.35 40.5891 205.094 41.5966 205.121 43.3754V43.6029C204.521 43.2649 203.237 42.7644 201.657 42.7644C198.488 42.7644 195.259 44.4652 195.259 47.6394C195.259 50.5427 197.854 52.4126 200.772 52.4126C203.003 52.4126 204.234 51.4311 205.008 50.2892H205.121V51.9641H208.323V43.6527C208.323 39.8112 205.381 37.6619 201.57 37.6619ZM201.17 49.5352C200.086 49.5352 198.574 49.0109 198.574 47.7001C198.574 46.0231 200.459 45.3796 202.09 45.3796C203.55 45.3796 204.234 45.6937 205.121 46.1076C204.861 48.1139 203.09 49.5352 201.17 49.5352V49.5352ZM219.99 38.1364L216.179 47.5289H216.066L212.126 38.1364H208.55L214.47 51.2621L211.092 58.5659H214.557L223.679 38.1364H219.99V38.1364ZM190.103 51.9987H193.428V30.3321H190.103V51.9987Z" fill="white"/>
<defs>
<linearGradient id="paint0_linear_898_7" x1="38.7549" y1="54.2353" x2="9.67473" y2="24.4095" gradientUnits="userSpaceOnUse">
<stop stop-color="#00A0FF"/>
<stop offset="0.0066" stop-color="#00A1FF"/>
<stop offset="0.2601" stop-color="#00BEFF"/>
<stop offset="0.5122" stop-color="#00D2FF"/>
<stop offset="0.7604" stop-color="#00DFFF"/>
<stop offset="1" stop-color="#00E3FF"/>
</linearGradient>
<linearGradient id="paint1_linear_898_7" x1="60.1499" y1="34.6633" x2="17.1332" y2="34.6633" gradientUnits="userSpaceOnUse">
<stop stop-color="#FFE000"/>
<stop offset="0.4087" stop-color="#FFBD00"/>
<stop offset="0.7754" stop-color="#FFA500"/>
<stop offset="1" stop-color="#FF9C00"/>
</linearGradient>
<linearGradient id="paint2_linear_898_7" x1="44.1366" y1="30.6859" x2="4.70148" y2="-9.76033" gradientUnits="userSpaceOnUse">
<stop stop-color="#FF3A44"/>
<stop offset="1" stop-color="#C31162"/>
</linearGradient>
<linearGradient id="paint3_linear_898_7" x1="12.9726" y1="69.0273" x2="30.5822" y2="50.9664" gradientUnits="userSpaceOnUse">
<stop stop-color="#32A071"/>
<stop offset="0.0685" stop-color="#2DA771"/>
<stop offset="0.4762" stop-color="#15CF74"/>
<stop offset="0.8009" stop-color="#06E775"/>
<stop offset="1" stop-color="#00F076"/>
</linearGradient>
</defs>
</svg>
