<?xml version="1.0" encoding="utf-8"?>
<!-- Generator: Adobe Illustrator 24.3.0, SVG Export Plug-In . SVG Version: 6.00 Build 0)  -->
<svg version="1.1" id="Layer_1" xmlns="http://www.w3.org/2000/svg" xmlns:xlink="http://www.w3.org/1999/xlink" x="0px" y="0px"
	 viewBox="0 0 422.6 406" style="enable-background:new 0 0 422.6 406;" xml:space="preserve">
<style type="text/css">
	.st0{clip-path:url(#SVGID_2_);}
	.st1{fill:#424143;}
	.st2{fill:#6C21FF;}
	.st3{fill:#FFFFFF;}
</style>
<g>
	<defs>
		
			<rect id="SVGID_1_" x="43.3" y="-21.7" transform="matrix(0.4593 -0.8883 0.8883 0.4593 -84.604 262.735)" width="260.4" height="445.1"/>
	</defs>
	<clipPath id="SVGID_2_">
		<use xlink:href="#SVGID_1_"  style="overflow:visible;"/>
	</clipPath>
	<g class="st0">
		<path class="st1" d="M204.7,246.8c-1.1,2.1-2.1,5.5,1.8,10.5c3.5,4.4,9.1,8.6,16.6,12.5c7.5,3.9,14.2,6,19.8,6.3
			c6.3,0.3,8.5-2.4,9.5-4.4c1.1-2.1,2.1-5.5-1.8-10.5c-3.5-4.4-9.1-8.6-16.6-12.5c-7.5-3.9-14.2-6-19.8-6.3
			C208,242,205.8,244.7,204.7,246.8z"/>
		<path class="st1" d="M242,197.3c-10.3-5.3-12.3-1.5-13.1,0.1c-0.7,1.4-2.6,5.1,7.7,10.5c10,5.2,12,1.4,12.7,0.1
			C250,206.3,252,202.5,242,197.3z"/>
		<path class="st2" d="M195.3,66.2L89.4,101.5l5.2,35.4c0.1,0,0.1,0.1,0.2,0.1c13.1,6.8,18.3,22.6,11.7,35.3
			c-6.6,12.8-22.5,17.6-35.6,10.9c-13.1-6.8-18.3-22.6-11.7-35.3c2.4-4.6,5.9-8.1,10.2-10.5l-4.1-27.8l-10.1,3.4l-6.4,12.5
			C34.6,106,9,64.9,23.2,37.6c1.4-2.7,3.1-5.2,5.2-7.5c7.5-8.2,14.1-12,18.6-10.6c8.4,2.6,14,21.8,15.4,30.6l16.5,113.2l13.8-1.8
			L76,48.3c-0.6-3.7-6-36-25.2-41.9C40.6,3.2,29.5,8.1,17.9,20.8c-2.9,3.3-5.4,6.8-7.3,10.5c-19.3,37.3,17.2,89.8,31.1,107.6
			L32,157.6l42.9,137.8c2.3,1.9,4.8,3.5,7.5,4.9l189.2,97.8c21.9,11.3,48.9,3.1,60-18.4l79.3-153.4c11.1-21.4,2.2-48.2-19.7-59.6
			L202.1,69C199.8,67.9,197.6,67,195.3,66.2z M239.7,311.6c2.2,8.4,1,17.2-3.6,26.1c-4,7.7-9.7,13-16.9,15.8l-2.7,1l-8.1-12.6l3-1.8
			c5.5-3.2,9.2-6.8,11.2-10.6c2.1-4.2,2.5-8.3,1.3-12.6c-1.2-4.2-3.8-7.3-7.9-9.4c-3.1-1.6-6-1.9-8.6-0.8c-2.8,1.2-5.2,3.6-7.1,7.3
			c-2.4,4.6-0.7,6.5-0.2,7.3l1.4,1.7l-5.1,11.3l-41.3-24.9l20.8-40.2l12.5,10l-11.9,23l9.1,5.4c0.3-1,0.7-1.9,1.3-2.9
			c3.6-7,8.9-11.7,15.8-14.1c7-2.4,14.1-1.8,21,1.7C232.1,296.5,237.4,303.1,239.7,311.6z M264.9,253.5c5.4,8.5,6,17.2,1.7,25.6
			c-4.2,8.2-11.5,12.6-21.7,13c-9.4,0.5-19.4-2-29.5-7.2c-10.2-5.3-17.9-12-23-19.9c-5.4-8.5-6.1-17-1.9-25.2
			c4.4-8.4,11.8-13,21.9-13.5c9.4-0.5,19.4,2,29.5,7.2C252.1,238.8,259.8,245.5,264.9,253.5z M229,222.4c-20-10.3-18.6-23.2-14-32.1
			c4.7-9,14.5-17.7,34.4-7.4c19.8,10.3,18.4,23.2,13.7,32.3C258.5,224.1,248.8,232.7,229,222.4z M289,235.7l-51.4-86l8.2-15.8
			l51.4,86L289,235.7z M318.9,177.5c-4.7,9-14.5,17.7-34.4,7.4c-19.8-10.3-18.4-23.2-13.7-32.3c4.7-9.1,14.5-17.8,34.3-7.6
			C325,155.3,323.6,168.4,318.9,177.5z"/>
		<path class="st2" d="M247.1,98.2L132.3,320.1l102.5,53l114.7-221.9L247.1,98.2z"/>
	</g>
</g>
<path class="st3" d="M173,189.7l10.5-20.5l8.9,4.6c1.8,0.9,3.3,2.1,4.3,3.3c1,1.3,1.6,2.6,1.8,4.1c0.2,1.5-0.2,3-1,4.5
	c-0.8,1.5-1.8,2.7-3.1,3.4c-1.3,0.7-2.8,1.1-4.4,1c-1.6-0.1-3.4-0.6-5.2-1.6l-6.3-3.2l3.2-1.1l-4,7.8L173,189.7z M181.5,184.9
	l-1-3.3l6,3.1c1.5,0.8,2.7,1,3.8,0.7c1-0.3,1.9-0.9,2.4-2.1c0.6-1.1,0.7-2.2,0.3-3.2c-0.4-1-1.3-1.9-2.8-2.6l-6-3.1l3.3-1.2
	L181.5,184.9z M203.4,205.3l1.6-3.1l0.1-0.8l2.8-5.5c0.5-1,0.6-1.9,0.3-2.8c-0.3-0.8-1.1-1.6-2.3-2.2c-0.8-0.4-1.7-0.7-2.7-0.9
	c-0.9-0.2-1.8-0.2-2.6,0l0-4c1.2-0.2,2.4-0.1,3.8,0.2c1.4,0.3,2.7,0.8,4,1.4c2.4,1.2,4,2.8,4.7,4.6c0.8,1.8,0.5,3.9-0.7,6.3l-4.6,9
	L203.4,205.3z M198.5,203.1c-1.2-0.6-2.2-1.4-2.9-2.2c-0.7-0.9-1-1.8-1.1-2.8c-0.1-1,0.1-1.9,0.5-2.8c0.5-0.9,1.1-1.6,1.9-2.1
	c0.8-0.5,1.8-0.6,3-0.5c1.2,0.1,2.6,0.6,4.2,1.4l4.2,2.1l-1.4,2.7l-3.7-1.9c-1.1-0.6-1.9-0.8-2.5-0.6c-0.6,0.2-1,0.5-1.3,1
	c-0.3,0.6-0.3,1.2,0,1.8c0.3,0.6,0.9,1.1,1.7,1.5c0.8,0.4,1.5,0.6,2.3,0.5c0.8-0.1,1.5-0.4,2.1-0.9l-0.4,2.5c-0.9,0.8-1.9,1.3-3,1.4
	C201.2,204.1,199.9,203.8,198.5,203.1z M210.5,216.4c-0.8-0.4-1.6-1-2.2-1.6c-0.7-0.7-1.1-1.4-1.4-2.1l3.3-2.4
	c0.2,0.5,0.5,0.9,0.8,1.3c0.4,0.4,0.8,0.7,1.2,1c0.6,0.3,1.2,0.4,1.8,0.3c0.5-0.1,1.1-0.4,1.8-1l1.8-1.5l0.6-0.3l12.6-10.7l4.4,2.3
	l-15.7,13.1c-1.2,1-2.3,1.7-3.3,2.1c-1,0.4-2,0.5-3,0.4C212.4,217.2,211.5,216.9,210.5,216.4z M216,212.5l1.4-20l4.7,2.4l-1.3,16
	L216,212.5z M237.4,222.7l8.1-15.8l4.6,2.3l-8.1,15.8L237.4,222.7z M248.9,205.9c-0.8-0.4-1.4-1-1.7-1.8c-0.3-0.8-0.2-1.5,0.1-2.2
	c0.4-0.7,0.9-1.2,1.7-1.4c0.8-0.2,1.6-0.1,2.4,0.3c0.8,0.4,1.4,1,1.7,1.8c0.3,0.7,0.3,1.4-0.1,2.2c-0.4,0.8-1,1.3-1.8,1.5
	C250.6,206.4,249.8,206.3,248.9,205.9z M264.1,216.1c1.3,0.6,2.2,1.5,3,2.5c0.7,1,1.1,2.2,1.2,3.5c0,1.3-0.3,2.8-1.2,4.4l-4.6,9
	l-4.6-2.3l4.3-8.3c0.7-1.3,0.8-2.4,0.6-3.3c-0.2-0.9-0.9-1.6-1.9-2.1c-0.7-0.4-1.5-0.6-2.2-0.5c-0.7,0-1.4,0.2-2.1,0.7
	c-0.6,0.5-1.2,1.2-1.7,2.2l-4,7.8l-4.6-2.3l8.1-15.8l4.4,2.2l-2.2,4.4l-0.1-1.7c1.1-0.8,2.3-1.2,3.7-1.2
	C261.4,215.1,262.7,215.4,264.1,216.1z M280.4,245.1c-1.4-0.7-2.8-1.6-4-2.7c-1.2-1.1-2.1-2.3-2.7-3.5l3.7-2.7c0.5,1,1.2,1.9,2,2.7
	c0.9,0.9,1.8,1.6,2.9,2.1c1.2,0.6,2.3,0.9,3.2,0.7c0.9-0.1,1.6-0.6,2-1.4c0.4-0.8,0.4-1.6,0-2.3c-0.4-0.8-1.2-1.5-2.6-2.2l-2.2-1.1
	l1.6-3.1l9-3.6l-0.3,2l-10.8-5.5l2-3.8l14.4,7.4l-1.6,3.1l-9,3.6l-1.7-2.6l1.4,0.7c2.5,1.3,4.1,2.8,4.9,4.6c0.7,1.8,0.6,3.6-0.3,5.4
	c-0.6,1.2-1.4,2.1-2.6,2.8c-1.1,0.7-2.5,1-4,1C284.1,246.7,282.3,246.1,280.4,245.1z M188.6,243c-1.3-0.7-2.3-1.6-3-2.7
	c-0.7-1.1-1-2.4-1-3.9c0.1-1.5,0.6-3.2,1.5-5c1-1.9,2-3.2,3.1-4.2c1.1-0.9,2.4-1.4,3.7-1.5c1.3-0.1,2.6,0.2,4,1
	c1.5,0.8,2.6,1.8,3.5,3.1c0.9,1.3,1.3,2.7,1.4,4.3c0.1,1.6-0.3,3.2-1.1,4.8c-0.9,1.7-1.9,2.9-3.3,3.8c-1.3,0.9-2.7,1.3-4.3,1.4
	C191.6,244.1,190.1,243.7,188.6,243z M176.5,243.6l11-21.5l4.4,2.2l-1.7,3.2l-2.5,4.7l-2.1,4.8l-4.6,8.9L176.5,243.6z M189.7,238.8
	c0.8,0.4,1.5,0.6,2.3,0.5c0.8,0,1.5-0.3,2.2-0.8c0.7-0.5,1.3-1.2,1.8-2.1c0.5-0.9,0.7-1.8,0.6-2.6c0-0.8-0.2-1.6-0.7-2.2
	c-0.4-0.7-1-1.2-1.8-1.6c-0.8-0.4-1.5-0.6-2.3-0.5c-0.8,0-1.5,0.3-2.2,0.8c-0.7,0.5-1.3,1.2-1.7,2.1c-0.5,0.9-0.7,1.8-0.7,2.6
	c0,0.8,0.2,1.6,0.7,2.2C188.4,237.9,189,238.4,189.7,238.8z M209.1,253.1l1.6-3.1l0.1-0.8l2.8-5.5c0.5-1,0.6-1.9,0.3-2.8
	c-0.3-0.8-1.1-1.6-2.3-2.2c-0.8-0.4-1.7-0.7-2.7-0.9c-0.9-0.2-1.8-0.2-2.6,0l0-4c1.2-0.2,2.4-0.1,3.8,0.2c1.4,0.3,2.7,0.8,4,1.4
	c2.4,1.2,4,2.8,4.7,4.6c0.8,1.8,0.5,3.9-0.7,6.3l-4.6,9L209.1,253.1z M204.1,250.9c-1.2-0.6-2.2-1.4-2.9-2.2c-0.7-0.9-1-1.8-1.1-2.8
	c-0.1-1,0.1-1.9,0.5-2.8c0.5-0.9,1.1-1.6,1.9-2.1c0.8-0.5,1.8-0.6,3-0.5c1.2,0.1,2.6,0.6,4.2,1.4l4.2,2.1l-1.4,2.7l-3.7-1.9
	c-1.1-0.6-1.9-0.8-2.5-0.6c-0.6,0.2-1,0.5-1.3,1c-0.3,0.6-0.3,1.2,0,1.8c0.3,0.6,0.9,1.1,1.7,1.5c0.8,0.4,1.5,0.6,2.3,0.5
	c0.8-0.1,1.5-0.4,2.1-0.9l-0.4,2.5c-0.9,0.8-1.9,1.3-3,1.4C206.8,251.9,205.5,251.6,204.1,250.9z M216.2,264.3
	c-0.8-0.4-1.6-1-2.2-1.6s-1.1-1.4-1.4-2.1l3.3-2.4c0.2,0.5,0.5,0.9,0.8,1.4c0.4,0.4,0.8,0.7,1.2,1c0.6,0.3,1.2,0.4,1.8,0.3
	c0.5-0.1,1.1-0.4,1.8-1l1.8-1.5l0.6-0.3l12.6-10.7l4.4,2.3l-15.7,13.1c-1.2,1-2.3,1.7-3.3,2.1c-1,0.4-2,0.5-3,0.4
	C218.1,265,217.1,264.7,216.2,264.3z M221.6,260.3l1.4-20l4.7,2.4l-1.3,16L221.6,260.3z M243.1,270.5l8.1-15.8l4.6,2.3l-8.1,15.8
	L243.1,270.5z M254.6,253.7c-0.8-0.4-1.4-1-1.7-1.8c-0.3-0.8-0.2-1.5,0.1-2.2c0.4-0.7,0.9-1.2,1.7-1.4c0.8-0.2,1.6-0.1,2.4,0.3
	c0.8,0.4,1.4,1,1.7,1.8c0.3,0.7,0.3,1.4-0.1,2.2c-0.4,0.8-1,1.3-1.8,1.5C256.3,254.3,255.4,254.2,254.6,253.7z M269.7,263.9
	c1.3,0.6,2.2,1.5,3,2.5c0.7,1,1.1,2.2,1.2,3.5c0,1.3-0.3,2.8-1.2,4.4l-4.6,9l-4.6-2.3l4.3-8.3c0.7-1.3,0.8-2.4,0.6-3.3
	c-0.2-0.9-0.9-1.6-1.9-2.1c-0.7-0.4-1.5-0.5-2.2-0.5c-0.7,0-1.4,0.2-2.1,0.7c-0.6,0.5-1.2,1.2-1.7,2.2l-4,7.8l-4.6-2.3l8.1-15.8
	l4.4,2.2l-2.2,4.4l-0.1-1.7c1.1-0.8,2.3-1.2,3.7-1.2C267,262.9,268.4,263.3,269.7,263.9z M281.5,284.8l1.6-3.2l16.4-8.1l5,2.6
	l-16.2,8.2l-2-1.9l16.2,8.3l-2,3.9L281.5,284.8z M290.4,294.8l2.2-4.3l2.1-3.8l2-3.8l4.5,2.3l-6.2,12L290.4,294.8z"/>
</svg>
