<svg id="Layer_1" data-name="Layer 1" xmlns="http://www.w3.org/2000/svg" xmlns:xlink="http://www.w3.org/1999/xlink" viewBox="0 0 410.57 397.76"><defs><style>.cls-1{fill:none;}.cls-2{clip-path:url(#clip-path);}.cls-3{fill:#424143;}.cls-4{fill:#6c21ff;}.cls-5{fill:#fff;}</style><clipPath id="clip-path" transform="translate(-4.09 -13.56)"><rect class="cls-1" x="42.32" y="-13.61" width="260.36" height="445.15" transform="translate(-92.35 266.23) rotate(-62.66)"/></clipPath></defs><g class="cls-2"><path class="cls-3" d="M203.72,254.88c-1.1,2.14-2.11,5.54,1.8,10.5,3.5,4.44,9.1,8.62,16.65,12.52s14.21,6,19.83,6.34c6.31.32,8.47-2.4,9.51-4.42s2.11-5.54-1.8-10.5c-3.5-4.44-9.1-8.61-16.64-12.51s-14.22-6-19.84-6.34C207,250.08,204.8,252.81,203.72,254.88Z" transform="translate(-4.09 -13.56)"/><path class="cls-3" d="M241,205.41c-10.34-5.35-12.31-1.55-13.14.06-.73,1.42-2.64,5.11,7.7,10.45,10,5.19,12,1.45,12.68.08C249.05,214.4,251,210.6,241,205.41Z" transform="translate(-4.09 -13.56)"/><path class="cls-4" d="M194.29,74.36,88.37,109.57,93.55,145l.17.09c13.07,6.76,18.3,22.56,11.7,35.33S82.9,198.07,69.83,191.31,51.53,168.75,58.13,156a25.58,25.58,0,0,1,10.19-10.54l-4-27.84L54.18,121l-6.45,12.48C33.57,114.06,8,73,22.17,45.68a34.91,34.91,0,0,1,5.22-7.47c7.5-8.24,14.1-12,18.57-10.57,8.42,2.62,14,21.78,15.35,30.59L77.78,171.4l13.79-1.75L75,56.44c-.58-3.68-6-36-25.22-41.94-10.19-3.16-21.29,1.71-32.89,14.39A52.27,52.27,0,0,0,9.6,39.41C-9.69,76.72,26.79,129.23,40.69,147L31,165.75,73.94,303.5a43.33,43.33,0,0,0,7.53,4.95l189.16,97.8c21.92,11.33,48.86,3.05,59.95-18.4l79.3-153.39c11.09-21.45,2.21-48.25-19.65-59.55L201.07,77.11A52.6,52.6,0,0,0,194.29,74.36ZM238.65,319.7c2.22,8.37,1,17.15-3.61,26.06-4,7.67-9.66,13-16.9,15.81l-2.71,1L207.35,350l3-1.75c5.49-3.19,9.21-6.75,11.21-10.62A16.65,16.65,0,0,0,222.91,325a14.81,14.81,0,0,0-7.92-9.44c-3.15-1.63-6-1.88-8.6-.83-2.8,1.18-5.17,3.57-7.07,7.26-2.4,4.63-.75,6.54-.16,7.29l1.38,1.7-5.15,11.27-41.27-24.88,20.77-40.16,12.51,10-11.88,23,9.11,5.39a23.5,23.5,0,0,1,1.26-2.89,27.83,27.83,0,0,1,15.81-14.11,25.82,25.82,0,0,1,21,1.75C231.08,304.64,236.43,311.17,238.65,319.7Zm25.23-58.11c5.44,8.54,6,17.19,1.65,25.63-4.23,8.2-11.53,12.55-21.65,13-9.43.47-19.39-2-29.55-7.22s-17.9-12-23-19.94c-5.45-8.53-6.11-17-1.87-25.21,4.36-8.43,11.75-13,21.87-13.46,9.43-.47,19.38,2,29.54,7.22S258.81,253.62,263.88,261.59Zm-35.9-31c-20-10.32-18.59-23.17-13.95-32.14s14.48-17.66,34.38-7.37,18.41,23.22,13.74,32.25S247.82,240.79,228,230.54Zm60,13.25-51.4-86L244.76,142l51.4,86Zm29.95-58.22c-4.67,9-14.48,17.66-34.38,7.37s-18.41-23.22-13.74-32.25,14.47-17.81,34.32-7.56S322.64,176.48,317.94,185.57Z" transform="translate(-4.09 -13.56)"/><path class="cls-4" d="M246.05,106.32,131.33,328.21l102.54,53,114.72-221.9Z" transform="translate(-4.09 -13.56)"/></g><path class="cls-5" d="M172,197.84l10.51-20.54,8.9,4.55a12.74,12.74,0,0,1,4.29,3.34,7.71,7.71,0,0,1,1.77,4.13,8.76,8.76,0,0,1-4.07,8,7.9,7.9,0,0,1-4.4,1,13.1,13.1,0,0,1-5.21-1.55l-6.25-3.2,3.21-1.06-4,7.81Zm8.48-4.84-1-3.34,6,3.06a5.51,5.51,0,0,0,3.77.74,3.67,3.67,0,0,0,2.42-2.05,3.74,3.74,0,0,0,.27-3.2,5.53,5.53,0,0,0-2.81-2.62l-6-3.07,3.27-1.18Zm22,20.42,1.58-3.08.05-.83,2.82-5.52a3.26,3.26,0,0,0,.26-2.75,4.33,4.33,0,0,0-2.3-2.22,9.05,9.05,0,0,0-2.71-.87,7.25,7.25,0,0,0-2.59,0v-4a11,11,0,0,1,3.83.18,15.57,15.57,0,0,1,4,1.4,9.41,9.41,0,0,1,4.73,4.57c.75,1.81.51,3.93-.72,6.33l-4.62,9Zm-4.94-2.23a8.38,8.38,0,0,1-2.85-2.24,5.52,5.52,0,0,1-1.14-2.77,4.9,4.9,0,0,1,.54-2.79,4.59,4.59,0,0,1,5-2.64,11.66,11.66,0,0,1,4.22,1.38l4.2,2.15L206.07,207l-3.69-1.89a4,4,0,0,0-2.51-.62,2,2,0,0,0-1.26,1,1.92,1.92,0,0,0,0,1.76,3.61,3.61,0,0,0,1.65,1.47,4.43,4.43,0,0,0,2.32.53,3.61,3.61,0,0,0,2.15-.94l-.38,2.47a4.57,4.57,0,0,1-3,1.39A7.35,7.35,0,0,1,197.49,211.19Zm12,13.35a8.86,8.86,0,0,1-2.24-1.63,5.88,5.88,0,0,1-1.42-2.06l3.34-2.4a4.32,4.32,0,0,0,.83,1.35,4.5,4.5,0,0,0,1.24,1,2.6,2.6,0,0,0,1.77.31,4.19,4.19,0,0,0,1.82-1l1.81-1.52.61-.31,12.64-10.72,4.4,2.25-15.71,13.11a11,11,0,0,1-3.29,2.09,6.1,6.1,0,0,1-3,.42A8.43,8.43,0,0,1,209.53,224.54Zm5.42-3.93,1.36-20L221,203l-1.3,16Zm21.48,10.21L244.51,215l4.58,2.34L241,233.17ZM247.93,214a3.26,3.26,0,0,1-1.68-1.78,2.68,2.68,0,0,1,.14-2.23,2.64,2.64,0,0,1,1.72-1.41,3.25,3.25,0,0,1,2.43.31,3.37,3.37,0,0,1,1.7,1.76,2.48,2.48,0,0,1-.11,2.17,2.86,2.86,0,0,1-1.77,1.5A3.19,3.19,0,0,1,247.93,214Zm15.13,10.23a8.05,8.05,0,0,1,3,2.47,6,6,0,0,1,1.17,3.5,9,9,0,0,1-1.16,4.37l-4.63,9-4.58-2.35,4.27-8.33a4.51,4.51,0,0,0,.59-3.26,3.38,3.38,0,0,0-1.88-2.11,4.68,4.68,0,0,0-2.21-.54,3.63,3.63,0,0,0-2,.69,6,6,0,0,0-1.71,2.17l-4,7.81-4.58-2.35,8.08-15.79,4.37,2.24-2.23,4.37-.15-1.74a6.58,6.58,0,0,1,3.68-1.19A8.54,8.54,0,0,1,263.06,224.23Zm16.32,29a18.7,18.7,0,0,1-4-2.73,12.81,12.81,0,0,1-2.74-3.48l3.71-2.69a10.73,10.73,0,0,0,2,2.74,11.34,11.34,0,0,0,2.89,2.11,5.51,5.51,0,0,0,3.17.74,2.5,2.5,0,0,0,2-1.41,2.45,2.45,0,0,0,0-2.32A5.69,5.69,0,0,0,284,244l-2.17-1.11,1.61-3.14,9-3.56-.34,2-10.78-5.52,2-3.81,14.38,7.36-1.58,3.08-9,3.57-1.7-2.61,1.38.71q3.78,1.94,4.85,4.63a6.26,6.26,0,0,1-.3,5.37,7.05,7.05,0,0,1-2.58,2.79,7.44,7.44,0,0,1-4,1A12.2,12.2,0,0,1,279.38,253.25Zm-91.78-2.19a7.59,7.59,0,0,1-3-2.67,6.6,6.6,0,0,1-1-3.87,12.51,12.51,0,0,1,1.52-5,12.69,12.69,0,0,1,3.14-4.17,6.22,6.22,0,0,1,3.65-1.5,7.74,7.74,0,0,1,4,1,8.74,8.74,0,0,1,3.47,3.07,8.22,8.22,0,0,1,1.38,4.26,10.41,10.41,0,0,1-4.41,8.6,8.16,8.16,0,0,1-4.26,1.38A9,9,0,0,1,187.6,251.06Zm-12.13.68,11-21.48,4.37,2.24-1.65,3.22-2.49,4.66-2.1,4.81-4.55,8.9Zm13.26-4.84a4.36,4.36,0,0,0,2.3.51,4.28,4.28,0,0,0,2.2-.76,5.4,5.4,0,0,0,1.76-2.07,5.21,5.21,0,0,0,.65-2.63,4.36,4.36,0,0,0-2.43-3.8,4.54,4.54,0,0,0-2.33-.52,4.19,4.19,0,0,0-2.2.76,5.42,5.42,0,0,0-1.73,2.08,5.59,5.59,0,0,0-.68,2.62,4.3,4.3,0,0,0,.68,2.23A4.49,4.49,0,0,0,188.73,246.9Zm19.35,14.35,1.58-3.08.05-.83,2.83-5.52a3.3,3.3,0,0,0,.26-2.75,4.39,4.39,0,0,0-2.31-2.22,8.87,8.87,0,0,0-2.71-.87,7.25,7.25,0,0,0-2.59,0v-4a11,11,0,0,1,3.83.18,15.66,15.66,0,0,1,4,1.39,9.42,9.42,0,0,1,4.73,4.58q1.13,2.72-.72,6.33l-4.61,9ZM203.15,259a8.42,8.42,0,0,1-2.86-2.24,5.52,5.52,0,0,1-1.14-2.77,4.91,4.91,0,0,1,.55-2.79,5,5,0,0,1,1.93-2.12,5.06,5.06,0,0,1,3.05-.52A11.72,11.72,0,0,1,208.9,250l4.19,2.15-1.36,2.67-3.7-1.89a4,4,0,0,0-2.5-.62,2,2,0,0,0-1.27,1,1.92,1.92,0,0,0,0,1.76,3.66,3.66,0,0,0,1.65,1.47,4.55,4.55,0,0,0,2.33.53,3.58,3.58,0,0,0,2.14-.94l-.38,2.47a4.57,4.57,0,0,1-3,1.39A7.34,7.34,0,0,1,203.15,259Zm12,13.35a8.93,8.93,0,0,1-2.24-1.63,6,6,0,0,1-1.43-2.06l3.34-2.41a4.46,4.46,0,0,0,2.07,2.32,2.56,2.56,0,0,0,1.77.32,4.3,4.3,0,0,0,1.82-1l1.82-1.52.6-.32,12.64-10.72,4.4,2.26-15.71,13.11a11,11,0,0,1-3.29,2.09,6.21,6.21,0,0,1-3,.42A8.31,8.31,0,0,1,215.19,272.37Zm5.42-3.93,1.35-20,4.73,2.42-1.3,16Zm21.47,10.21,8.09-15.79,4.57,2.34L246.66,281Zm11.5-16.82A3.28,3.28,0,0,1,251.9,260a2.78,2.78,0,0,1,1.87-3.63,3.26,3.26,0,0,1,2.43.31,3.35,3.35,0,0,1,1.69,1.76,2.48,2.48,0,0,1-.11,2.17,2.86,2.86,0,0,1-1.77,1.5A3.19,3.19,0,0,1,253.58,261.83Zm15.13,10.23a8.05,8.05,0,0,1,3,2.47,5.91,5.91,0,0,1,1.17,3.5,9,9,0,0,1-1.16,4.36l-4.63,9-4.57-2.34,4.26-8.34a4.48,4.48,0,0,0,.59-3.25,3.33,3.33,0,0,0-1.88-2.11,4.65,4.65,0,0,0-2.21-.54,3.58,3.58,0,0,0-2.05.69,6,6,0,0,0-1.7,2.17l-4,7.81-4.58-2.35L259,267.38l4.38,2.24L261.13,274l-.15-1.74a6.59,6.59,0,0,1,3.69-1.19A8.41,8.41,0,0,1,268.71,272.06Zm11.81,20.82,1.64-3.2,16.36-8.07,5,2.55-16.15,8.18-2-1.86,16.18,8.28-2,3.87Zm8.86,10,2.21-4.31,2.13-3.8,2-3.85,4.49,2.3-6.16,12Z" transform="translate(-4.09 -13.56)"/></svg>