<svg xmlns="http://www.w3.org/2000/svg" xmlns:xlink="http://www.w3.org/1999/xlink" viewBox="0 0 226.66 57.09"><defs><style>.cls-1{fill:url(#linear-gradient);}</style><linearGradient id="linear-gradient" x1="27.54" y1="56.94" x2="28.04" y2="37.44" gradientTransform="matrix(1, 0, 0, -1, 0, 59.89)" gradientUnits="userSpaceOnUse"><stop offset="0" stop-color="#ff00d6"/><stop offset="1" stop-color="#8000ff"/></linearGradient></defs><g id="Layer_2" data-name="Layer 2"><g id="Layer_1-2" data-name="Layer 1"><path d="M69.34,26.52l-.09-11.68L73,15l-.42,27.47,24.7.71c.5.15.75.42.75.79a1.62,1.62,0,0,1-.7,1.17,4.49,4.49,0,0,1-3.1,1.22,4.79,4.79,0,0,1-.89-.09L68.17,46Q69.34,41.66,69.34,26.52Zm55.22,3.32h1.31a7.8,7.8,0,0,1,1.5.14.91.91,0,0,1,.75,1c.22,1.25-.51,1.86-2.2,1.82l-1.31-.09a4.87,4.87,0,0,0-.94,0c-.25,0-.36.08-.33.23.32.91.64,1.93,1,3.05s.78,2.25,1.22,3.38a24.12,24.12,0,0,0,3.18,6,7.34,7.34,0,0,1-1.87,1.64,7.26,7.26,0,0,1-1.13.65.12.12,0,0,1-.09,0L119,33.73l-12.8,3.15-.46,2q-1.36,5.4-3,7.5c-.19.32-.58.35-1.17.1-1-.38-1.5-.69-1.5-.94,0-.06.32-1,1-2.72s1.31-3.51,2-5.3,1.39-3.7,2.11-5.67,1.45-3.84,2.11-5.62,1.25-3.38,1.78-4.78.91-2.47,1.12-3.1a10,10,0,0,0,.43-1.69,5.59,5.59,0,0,1,.37-1.26c.31-.72,1.1-1.08,2.35-1.08a8.13,8.13,0,0,1,3.09,3,19.89,19.89,0,0,1,1.87,3.85c.54,1.37,1,2.76,1.55,4.17a14.65,14.65,0,0,0,2,3.84,1.5,1.5,0,0,0,1.26.71C123.62,29.83,124.12,29.84,124.56,29.84ZM112.84,19.72a21.88,21.88,0,0,1-1.68,5.86q-1.32,3-2.11,4.69c-.53,1.09-1,2.11-1.36,3a21.76,21.76,0,0,0,7.83-1.87c.78-.35,1.53-.66,2.25-.94Q115.57,21.08,112.84,19.72Zm17.44,23.2a2.06,2.06,0,0,1,.7-1.54,8,8,0,0,1,1.13-.94,4.56,4.56,0,0,0,.56-.42q.24,4.26,5.77,4.26a24.58,24.58,0,0,0,10.17-2.72q4.13-1.87,5.53-3.84a1.87,1.87,0,0,0,.47-1,1.28,1.28,0,0,0-.14-.65L135,31.72a4.27,4.27,0,0,1-1.65-.8c-1-.69-1.45-1.31-1.45-1.87q0-3.24,4.6-5.86a42,42,0,0,1,13.54-4.31,26.53,26.53,0,0,1,2.86-.38,7.78,7.78,0,0,0,.85.19,7.24,7.24,0,0,1,1.21.19c1,.21,1.38.62,1.22,1.21q0,1.61-6.09,2.53c-5.25.79-8.53,1.44-9.84,2a9.42,9.42,0,0,0-2.82,1.64,3,3,0,0,0-.89,2c0,.16.36.33,1.08.52s1.58.42,2.58.7,2.3.59,3.89,1q5.8,1.59,14.25,4a4.73,4.73,0,0,1,.47,1.92q0,2.49-2.91,4.78a27.9,27.9,0,0,1-9.09,4.36,28.39,28.39,0,0,1-7.69,1.46,12.26,12.26,0,0,1-4.55-.85,14.63,14.63,0,0,1-3.23-1.64A2.16,2.16,0,0,1,130.28,42.92Zm37.41-9.14c-.1,1.06-.14,2.58-.14,4.55a34.46,34.46,0,0,0,.89,7.08l-3.71,1.87-1.68-12.75c-1.1-.15-1.64-.53-1.64-1.12a2.58,2.58,0,0,1,.75-1.55,14.24,14.24,0,0,0,1.17-1.45,2.85,2.85,0,0,0,.42-1.32c.06-.5.14-1.37.23-2.62s.18-2.58.24-4,.17-2.73.23-4,.14-2.12.14-2.62a7.66,7.66,0,0,1,1.5-1.27c.78-.41,1.32-.25,1.6.47l-.28,14.76c7.71,0,12.36-.5,13.92-1.5V13.53c.19-.53,1.06-.8,2.62-.8a6.36,6.36,0,0,1,.85,0c0,.6,0,1.5,0,2.72s.11,2.55.14,4.08.13,3.15.19,4.87.13,3.3.19,4.83q.13,4.78.23,7a21,21,0,0,0,2.3,9.1,12.44,12.44,0,0,1-4.64.84q-2.16-5.34-2.3-14c-2.06-.06-3.47-.09-4.22-.09s-1.59,0-2.53.14A24.17,24.17,0,0,0,167.69,33.78Zm26.72,12.47c0,.53-.38.8-1.13.8a3.8,3.8,0,0,1-2-.8q-.57-1.26-.57-6c0-3.18,0-5.81.1-7.87s.12-4,.18-5.77c.19-3.81.29-5.83.29-6a4.64,4.64,0,0,1,2.25-.8c.59,0,.89.26.89.8ZM219.72,24l-4.17-.09a25.47,25.47,0,0,0-3.8.33c-.06,1.22-.19,2.8-.38,4.73q-1,10.32-1,13.41c0,2,0,3.47.09,4.31l-4.4.33,1.45-23.16-10-.56c-.25,0-.46-.2-.61-.61a3.65,3.65,0,0,1-.19-1.12,2,2,0,0,1,.42-1.13,1.21,1.21,0,0,1,1-.61c2.28.1,4.57.25,6.89.47,4.28.38,7.92.56,10.92.56l2.9-.09a40.9,40.9,0,0,0,6.8-.75c.5.09.81.88.94,2.34,0,.32,0,.57,0,.75A24.9,24.9,0,0,1,219.72,24Z"/><path class="cls-1" d="M0,48.84a4.09,4.09,0,0,1,1.41-3.09,16.63,16.63,0,0,1,2.25-1.87A8.69,8.69,0,0,0,4.78,43q.46,8.53,11.53,8.53,8.72,0,20.35-5.44,8.25-3.75,11.06-7.68a3.71,3.71,0,0,0,.94-2,2.52,2.52,0,0,0-.29-1.31L9.47,26.44a8.27,8.27,0,0,1-3.28-1.6q-2.91-2.06-2.91-3.75,0-6.46,9.19-11.71Q22.6,3.65,39.56.75A52.12,52.12,0,0,1,45.28,0,13.67,13.67,0,0,0,47,.38a16,16,0,0,1,2.44.37c1.93.44,2.75,1.25,2.43,2.44q0,3.18-12.18,5.06Q23.91,10.59,20,12.19a18.68,18.68,0,0,0-5.63,3.28,5.85,5.85,0,0,0-1.78,4c0,.31.72.66,2.16,1s3.15.85,5.15,1.41,4.6,1.18,7.79,2.06q11.62,3.18,28.5,8.06a9.44,9.44,0,0,1,.93,3.85q0,5-5.81,9.56-6.56,5.16-18.19,8.72-9.65,2.89-15.37,2.9a24.87,24.87,0,0,1-9.1-1.68,28.78,28.78,0,0,1-6.46-3.29C.72,51.06,0,50,0,48.84Z"/></g></g></svg>