<svg width="560" height="397" viewBox="0 0 560 397" fill="none" xmlns="http://www.w3.org/2000/svg">
<path d="M298.999 17.3068L388.534 165.411C394.294 174.931 391.23 187.335 381.701 193.101L127.743 346.634C126.158 347.591 124.487 348.306 122.787 348.78C114.268 351.197 104.859 347.759 100.05 339.815L10.5158 191.71C4.75559 182.19 7.80582 169.783 17.3484 164.021L271.315 10.4828C274.717 8.42868 278.51 7.48977 282.22 7.60014C288.876 7.74194 295.302 11.1834 298.999 17.3068Z" fill="#6C21FF"/>
<path opacity="0.53" d="M310.416 236.202L127.743 346.632C126.159 347.589 124.487 348.305 122.787 348.779L154.849 218.687C155.803 214.797 157.811 211.445 160.519 208.905C165.324 204.288 172.349 202.162 179.321 203.899L310.416 236.202Z" fill="#6C21FF"/>
<path opacity="0.53" d="M149.638 84.0335L139.815 123.918C137.151 134.764 126.184 141.398 115.349 138.715L75.4596 128.883L149.638 84.0335Z" fill="black"/>
<path opacity="0.53" d="M298.998 17.3055L378.96 149.577C374.427 152.561 368.708 153.735 363.012 152.32L194.494 110.788C183.647 108.123 177.008 97.1473 179.687 86.3042L185.607 62.2803L271.3 10.4781C274.702 8.42391 278.495 7.48502 282.205 7.5954C288.874 7.74061 295.301 11.182 298.998 17.3055Z" fill="#FF00D6"/>
<path d="M76.031 233.98L76.9099 235.435L74.7823 236.603L76.9917 237.537L76.1593 239.097L74.0059 237.847L74.1095 240.335L72.3668 240.329L72.5431 237.955L70.5505 239.287L69.6717 237.832L71.789 236.706L69.5812 235.736L70.3878 234.191L72.5412 235.441L72.4376 232.953L74.2061 232.943L74.0196 235.359L76.031 233.98Z" fill="white"/>
<path d="M86.699 227.527L87.5779 228.982L85.4503 230.15L87.6597 231.084L86.8272 232.644L84.6739 231.394L84.7775 233.882L83.0348 233.876L83.211 231.502L81.2185 232.834L80.3396 231.379L82.457 230.253L80.2492 229.282L81.0558 227.738L83.2092 228.988L83.1056 226.5L84.8741 226.49L84.6876 228.906L86.699 227.527Z" fill="white"/>
<path d="M97.3759 221.079L98.2548 222.534L96.1358 223.696L98.3452 224.631L97.5128 226.191L95.3594 224.941L95.463 227.429L93.7203 227.423L93.8966 225.049L91.904 226.381L91.0252 224.925L93.1425 223.8L90.9347 222.829L91.7414 221.285L93.8947 222.535L93.7911 220.047L95.5596 220.037L95.3732 222.453L97.3759 221.079Z" fill="white"/>
<path d="M108.043 214.628L108.922 216.084L106.794 217.251L109.003 218.185L108.171 219.746L106.018 218.496L106.121 220.983L104.379 220.978L104.555 218.603L102.562 219.936L101.683 218.48L103.801 217.354L101.593 216.384L102.4 214.839L104.553 216.089L104.449 213.602L106.218 213.591L106.031 216.007L108.043 214.628Z" fill="white"/>
<path d="M126.115 203.703L126.994 205.158L124.866 206.325L127.076 207.259L126.243 208.82L124.09 207.57L124.193 210.058L122.451 210.052L122.627 207.677L120.634 209.01L119.756 207.554L121.873 206.429L119.665 205.458L120.472 203.913L122.625 205.163L122.522 202.676L124.29 202.666L124.104 205.082L126.115 203.703Z" fill="white"/>
<path d="M136.789 197.246L137.668 198.701L135.54 199.868L137.75 200.802L136.917 202.363L134.764 201.113L134.867 203.6L133.125 203.595L133.301 201.22L131.308 202.553L130.429 201.097L132.547 199.972L130.339 199.001L131.146 197.456L133.299 198.706L133.195 196.219L134.964 196.209L134.777 198.625L136.789 197.246Z" fill="white"/>
<path d="M147.459 190.802L148.338 192.258L146.21 193.425L148.419 194.359L147.587 195.919L145.434 194.669L145.537 197.157L143.795 197.152L143.971 194.777L141.978 196.109L141.099 194.654L143.217 193.528L141.009 192.558L141.816 191.013L143.969 192.263L143.865 189.775L145.634 189.765L145.447 192.181L147.459 190.802Z" fill="white"/>
<path d="M158.134 184.347L159.013 185.802L156.894 186.964L159.103 187.898L158.271 189.459L156.117 188.208L156.221 190.696L154.478 190.691L154.654 188.316L152.662 189.648L151.783 188.193L153.9 187.067L151.693 186.097L152.499 184.552L154.653 185.802L154.549 183.314L156.317 183.304L156.131 185.72L158.134 184.347Z" fill="white"/>
<path d="M176.199 173.427L177.078 174.883L174.95 176.05L177.16 176.984L176.327 178.544L174.174 177.294L174.277 179.782L172.535 179.777L172.711 177.402L170.718 178.734L169.84 177.279L171.957 176.153L169.749 175.183L170.556 173.638L172.709 174.888L172.606 172.4L174.374 172.39L174.188 174.806L176.199 173.427Z" fill="white"/>
<path d="M186.873 166.97L187.752 168.426L185.624 169.593L187.834 170.527L187.001 172.087L184.848 170.837L184.951 173.325L183.209 173.32L183.385 170.945L181.392 172.277L180.513 170.822L182.631 169.696L180.423 168.726L181.23 167.181L183.383 168.431L183.279 165.943L185.048 165.933L184.861 168.349L186.873 166.97Z" fill="white"/>
<path d="M197.547 160.515L198.426 161.971L196.298 163.138L198.507 164.072L197.675 165.632L195.522 164.382L195.625 166.87L193.882 166.865L194.059 164.49L192.066 165.822L191.187 164.367L193.305 163.241L191.097 162.271L191.903 160.726L194.057 161.976L193.953 159.488L195.722 159.478L195.535 161.894L197.547 160.515Z" fill="white"/>
<path d="M208.218 154.069L209.097 155.525L206.978 156.687L209.187 157.621L208.355 159.181L206.201 157.931L206.305 160.419L204.562 160.413L204.738 158.039L202.746 159.371L201.867 157.916L203.984 156.79L201.777 155.82L202.583 154.275L204.737 155.525L204.633 153.037L206.401 153.027L206.215 155.443L208.218 154.069Z" fill="white"/>
<path d="M227.825 161.163L226.78 159.431L228.932 150.305C229.521 147.893 229.504 146.152 228.854 145.075C228.313 144.18 227.616 143.649 226.772 143.477C225.927 143.305 225.105 143.461 224.313 143.939C222.805 144.849 222.152 146.219 222.335 148.06L219.931 148.089C219.807 146.754 220.031 145.549 220.601 144.488C221.166 143.418 221.986 142.558 223.063 141.908C224.398 141.102 225.826 140.839 227.338 141.125C228.859 141.405 230.067 142.298 230.962 143.779C231.934 145.389 232.048 147.718 231.297 150.757L229.681 157.268L236.881 152.921L238.119 154.971L227.825 161.163Z" fill="white"/>
<path d="M241.984 139.767C243.334 139.258 244.65 139.18 245.919 139.53C247.188 139.88 248.205 140.688 248.964 141.946C249.9 143.496 250.105 145.041 249.586 146.577C249.068 148.112 248.046 149.34 246.531 150.255C245.316 150.988 244.073 151.363 242.802 151.378C241.53 151.394 240.375 150.999 239.344 150.187L240.484 148.065C241.847 149.252 243.443 149.287 245.277 148.179C246.259 147.587 246.913 146.839 247.221 145.948C247.529 145.057 247.402 144.146 246.846 143.225C246.289 142.303 245.537 141.759 244.605 141.616C243.668 141.465 242.702 141.696 241.72 142.289L241.178 142.616L239.548 141.825L240.224 134.613L233.144 138.888L231.948 136.907L241.503 131.126L242.617 132.991L241.984 139.767Z" fill="white"/>
<path d="M264.51 132.151L265.707 134.132L263.769 135.302L265.599 138.333L263.481 139.613L261.65 136.581L253.52 141.49L252.324 139.509L251.435 125.132L253.708 123.759L254.598 138.136L260.445 134.605L257.726 130.101L259.844 128.822L262.564 133.326L264.51 132.151Z" fill="white"/>
<path d="M269.984 122.415C271.491 121.505 273.023 121.18 274.6 121.438C276.178 121.696 277.433 122.607 278.38 124.174C279.316 125.724 279.52 127.27 279.002 128.805C278.483 130.34 277.462 131.568 275.946 132.484C274.732 133.217 273.47 133.579 272.16 133.571C270.851 133.562 269.669 133.124 268.619 132.242L269.8 130.13C270.484 130.775 271.242 131.116 272.098 131.152C272.954 131.188 273.814 130.938 274.693 130.408C275.692 129.805 276.354 129.052 276.662 128.161C276.97 127.27 276.843 126.359 276.287 125.438C275.73 124.516 274.978 123.971 274.038 123.834C273.1 123.683 272.143 123.909 271.17 124.496L266.666 127.216L262.242 118.605L270.978 113.318L272.174 115.299L265.371 119.407L267.654 123.811L269.984 122.415Z" fill="white"/>
<path d="M105.724 294.405C104.793 294.966 103.84 295.119 102.859 294.877C101.878 294.635 101.119 294.059 100.578 293.163C100.038 292.267 99.8814 291.328 100.115 290.352C100.349 289.377 100.937 288.598 101.867 288.037C102.427 287.699 103.027 287.525 103.661 287.506C104.296 287.487 104.876 287.63 105.419 287.925L104.954 288.77C104.579 288.538 104.145 288.424 103.681 288.434C103.217 288.444 102.767 288.574 102.345 288.829C101.639 289.256 101.202 289.837 101.03 290.563C100.858 291.29 100.977 291.994 101.393 292.683C101.804 293.363 102.371 293.797 103.095 293.983C103.818 294.169 104.536 294.053 105.237 293.618C105.659 293.363 105.984 293.025 106.209 292.619C106.442 292.208 106.539 291.785 106.509 291.345L107.468 291.318C107.485 291.931 107.347 292.52 107.035 293.073C106.717 293.617 106.283 294.067 105.724 294.405Z" fill="white"/>
<path d="M110.112 285.595L110.878 285.132L113.531 289.524L112.764 289.987L112.307 289.229C112.276 290.035 111.902 290.661 111.17 291.103C110.558 291.472 109.898 291.565 109.188 291.383C108.487 291.195 107.944 290.782 107.554 290.136C107.164 289.49 107.052 288.818 107.212 288.11C107.372 287.402 107.762 286.861 108.382 286.486C109.106 286.05 109.828 286.001 110.57 286.353L110.112 285.595ZM110.817 290.305C111.265 290.034 111.547 289.664 111.652 289.178C111.772 288.694 111.695 288.235 111.424 287.787C111.154 287.34 110.784 287.058 110.3 286.938C109.817 286.819 109.358 286.896 108.91 287.166C108.471 287.432 108.194 287.81 108.084 288.289C107.964 288.772 108.041 289.231 108.312 289.679C108.582 290.126 108.952 290.408 109.436 290.528C109.928 290.642 110.383 290.579 110.817 290.305Z" fill="white"/>
<path d="M113.241 284.705C113.163 284.012 113.453 283.46 114.116 283.06L114.6 283.861C114.219 284.067 113.949 284.36 113.817 284.745C113.68 285.121 113.756 285.558 114.042 286.031L115.446 288.357L114.679 288.819L112.027 284.427L112.794 283.964L113.241 284.705Z" fill="white"/>
<path d="M117.246 278.879L118.012 278.416L121.725 284.566L120.959 285.029L120.501 284.271C120.47 285.076 120.096 285.702 119.364 286.144C118.753 286.513 118.092 286.607 117.382 286.424C116.681 286.236 116.138 285.824 115.748 285.178C115.358 284.532 115.246 283.859 115.406 283.151C115.566 282.443 115.957 281.902 116.577 281.528C117.3 281.091 118.031 281.037 118.764 281.394L117.246 278.879ZM119.025 285.35C119.473 285.079 119.755 284.709 119.861 284.222C119.98 283.739 119.903 283.28 119.633 282.832C119.362 282.385 118.992 282.103 118.509 281.983C118.025 281.864 117.566 281.941 117.127 282.206C116.688 282.471 116.411 282.85 116.3 283.328C116.181 283.812 116.258 284.27 116.529 284.718C116.799 285.166 117.169 285.448 117.653 285.567C118.127 285.692 118.586 285.615 119.025 285.35Z" fill="white"/>
<path d="M125.246 274.049L126.056 273.56L129.769 279.71L128.959 280.198L127.29 277.434L124.301 279.238L125.971 282.003L125.153 282.497L121.439 276.348L122.258 275.854L123.833 278.463L126.822 276.659L125.246 274.049Z" fill="white"/>
<path d="M134.377 276.164C134.2 276.882 133.784 277.439 133.138 277.829C132.492 278.219 131.814 278.323 131.101 278.154C130.383 277.976 129.831 277.569 129.436 276.914C129.046 276.268 128.937 275.582 129.115 274.864C129.292 274.146 129.705 273.603 130.345 273.204C130.991 272.814 131.669 272.71 132.391 272.874C133.112 273.037 133.669 273.453 134.064 274.108C134.451 274.768 134.555 275.446 134.377 276.164ZM132.685 277.08C133.125 276.814 133.407 276.444 133.517 275.966C133.637 275.483 133.56 275.024 133.294 274.585C133.024 274.137 132.654 273.855 132.176 273.744C131.692 273.625 131.234 273.702 130.794 273.967C130.364 274.227 130.082 274.597 129.962 275.081C129.843 275.564 129.92 276.023 130.185 276.462C130.456 276.91 130.826 277.192 131.304 277.303C131.805 277.412 132.255 277.34 132.685 277.08Z" fill="white"/>
<path d="M136.293 275.759L132.424 269.352L133.19 268.889L137.059 275.296L136.293 275.759Z" fill="white"/>
<path d="M138.143 266.249L138.909 265.786L142.622 271.936L141.856 272.398L141.398 271.64C141.368 272.446 140.993 273.072 140.261 273.514C139.65 273.883 138.989 273.976 138.28 273.794C137.579 273.606 137.036 273.193 136.637 272.553C136.247 271.907 136.135 271.234 136.295 270.526C136.455 269.818 136.845 269.277 137.457 268.908C138.18 268.471 138.917 268.426 139.644 268.774L138.143 266.249ZM139.923 272.72C140.37 272.449 140.652 272.079 140.758 271.592C140.877 271.109 140.8 270.65 140.53 270.202C140.259 269.754 139.889 269.472 139.406 269.353C138.922 269.234 138.464 269.311 138.024 269.576C137.585 269.841 137.309 270.22 137.189 270.703C137.07 271.187 137.147 271.645 137.417 272.093C137.688 272.541 138.058 272.823 138.541 272.943C139.019 273.053 139.483 272.985 139.923 272.72Z" fill="white"/>
<path d="M143.208 269.069C143.524 269.418 143.887 269.611 144.301 269.654C144.716 269.698 145.136 269.597 145.55 269.347C146.127 268.999 146.419 268.529 146.426 267.937L147.295 267.917C147.265 268.84 146.825 269.552 145.964 270.072C145.266 270.494 144.568 270.622 143.872 270.442C143.168 270.268 142.62 269.847 142.219 269.184C141.819 268.521 141.701 267.84 141.858 267.146C142.023 266.446 142.439 265.89 143.12 265.479C143.766 265.089 144.426 264.995 145.107 265.207C145.787 265.419 146.321 265.837 146.706 266.475C146.774 266.586 146.833 266.704 146.888 266.835L143.208 269.069ZM143.548 266.207C143.135 266.457 142.866 266.772 142.74 267.165C142.613 267.559 142.628 267.973 142.802 268.397L145.739 266.624C145.42 266.252 145.064 266.032 144.676 265.973C144.27 265.924 143.893 265.999 143.548 266.207Z" fill="white"/>
<path d="M147.448 264.027C147.37 263.334 147.66 262.783 148.323 262.382L148.807 263.183C148.418 263.395 148.161 263.69 148.024 264.067C147.887 264.444 147.963 264.88 148.249 265.354L149.653 267.679L148.886 268.142L146.234 263.749L147.001 263.287L147.448 264.027Z" fill="white"/>
<path d="M153.436 259.248C153.953 258.936 154.465 258.85 154.968 258.982C155.475 259.122 155.896 259.467 156.234 260.027L157.861 262.723L157.095 263.186L155.493 260.533C155.275 260.171 155.014 259.953 154.701 259.883C154.392 259.799 154.059 259.871 153.723 260.074C153.344 260.303 153.107 260.61 153.015 260.983C152.928 261.365 153.026 261.799 153.322 262.29L154.727 264.616L153.96 265.079L151.308 260.686L152.074 260.223L152.454 260.852C152.476 260.169 152.799 259.633 153.436 259.248Z" fill="white"/>
<path d="M159.902 255.496L160.668 255.033L163.321 259.425L162.554 259.888L162.096 259.13C162.066 259.936 161.691 260.562 160.959 261.004C160.348 261.373 159.687 261.466 158.978 261.284C158.277 261.096 157.734 260.683 157.335 260.043C156.945 259.397 156.833 258.724 156.993 258.016C157.153 257.308 157.543 256.767 158.155 256.398C158.878 255.961 159.61 255.907 160.342 256.264L159.885 255.506L159.902 255.496ZM160.616 260.201C161.063 259.93 161.34 259.552 161.451 259.073C161.57 258.59 161.493 258.131 161.223 257.683C160.952 257.235 160.582 256.954 160.099 256.834C159.615 256.715 159.157 256.792 158.717 257.057C158.278 257.322 157.996 257.692 157.882 258.184C157.763 258.668 157.84 259.127 158.11 259.574C158.381 260.022 158.751 260.304 159.234 260.424C159.718 260.543 160.176 260.466 160.616 260.201Z" fill="white"/>
<path d="M166.497 251.35C166.988 251.053 167.478 250.969 167.986 251.109C168.48 251.246 168.895 251.583 169.222 252.126L170.871 254.856L170.104 255.319L168.471 252.614C168.269 252.278 168.021 252.063 167.726 251.983C167.439 251.898 167.141 251.949 166.848 252.125C166.521 252.323 166.33 252.591 166.262 252.926C166.194 253.261 166.302 253.654 166.578 254.11L168.049 256.548L167.283 257.01L165.65 254.306C165.447 253.97 165.2 253.755 164.922 253.665C164.644 253.574 164.354 253.62 164.07 253.791C163.742 253.989 163.543 254.262 163.472 254.611C163.391 254.965 163.491 255.363 163.756 255.802L165.228 258.24L164.461 258.702L161.809 254.31L162.576 253.847L162.929 254.433C162.95 253.786 163.235 253.285 163.812 252.936C164.406 252.577 164.988 252.567 165.556 252.905C165.572 252.25 165.886 251.719 166.497 251.35Z" fill="white"/>
<path d="M171.35 252.051C171.667 252.401 172.03 252.593 172.444 252.637C172.858 252.68 173.279 252.579 173.692 252.33C174.269 251.981 174.561 251.511 174.568 250.919L175.438 250.899C175.408 251.823 174.968 252.535 174.107 253.055C173.409 253.476 172.711 253.604 172.015 253.425C171.31 253.251 170.762 252.83 170.362 252.166C169.961 251.503 169.844 250.822 170.001 250.128C170.166 249.429 170.587 248.881 171.262 248.461C171.908 248.071 172.569 247.978 173.249 248.19C173.93 248.402 174.464 248.82 174.849 249.457C174.916 249.569 174.975 249.686 175.031 249.817L171.35 252.051ZM171.699 249.185C171.286 249.434 171.018 249.749 170.891 250.143C170.764 250.536 170.779 250.95 170.953 251.374L173.89 249.601C173.571 249.229 173.215 249.009 172.827 248.95C172.421 248.901 172.044 248.977 171.699 249.185Z" fill="white"/>
<path d="M291.741 180.732L294.592 179.01L295.06 179.786L291.391 182.001L287.678 175.852L291.304 173.662L291.772 174.437L288.964 176.133L290.103 178.019L292.695 176.453L293.158 177.22L290.566 178.785L291.741 180.732Z" fill="white"/>
<path d="M299.774 176.927L298.878 177.468L296.643 176.549L296.415 178.955L295.519 179.496L295.831 176.217L292.962 175.046L293.866 174.5L295.915 175.343L296.131 173.133L297.027 172.592L296.727 175.676L299.774 176.927Z" fill="white"/>
<path d="M300.19 170.528C300.801 170.159 301.462 170.066 302.172 170.248C302.873 170.436 303.424 170.844 303.814 171.489C304.204 172.135 304.317 172.808 304.156 173.516C303.996 174.224 303.606 174.765 302.994 175.134C302.271 175.571 301.534 175.616 300.807 175.268L302.326 177.783L301.559 178.246L297.846 172.096L298.612 171.633L299.07 172.391C299.078 171.587 299.466 170.965 300.19 170.528ZM302.435 174.461C302.874 174.196 303.156 173.826 303.271 173.334C303.39 172.85 303.313 172.392 303.042 171.944C302.772 171.496 302.402 171.214 301.919 171.095C301.435 170.975 300.976 171.052 300.537 171.318C300.089 171.588 299.813 171.967 299.702 172.445C299.582 172.928 299.66 173.387 299.93 173.835C300.2 174.283 300.57 174.565 301.054 174.684C301.529 174.809 301.987 174.731 302.435 174.461Z" fill="white"/>
<path d="M303.296 167.713C303.149 167.801 302.998 167.822 302.837 167.79C302.671 167.749 302.561 167.663 302.472 167.517C302.384 167.37 302.368 167.227 302.4 167.067C302.441 166.901 302.53 166.776 302.677 166.688C302.815 166.605 302.966 166.584 303.132 166.625C303.298 166.666 303.414 166.76 303.497 166.898C303.58 167.036 303.601 167.187 303.569 167.348C303.523 167.505 303.434 167.63 303.296 167.713ZM306.039 173.132L303.387 168.739L304.153 168.276L306.805 172.669L306.039 173.132Z" fill="white"/>
<path d="M306.529 167.853C306.451 167.16 306.741 166.609 307.404 166.208L307.888 167.009C307.507 167.216 307.243 167.517 307.106 167.893C306.969 168.27 307.044 168.706 307.33 169.18L308.734 171.505L307.968 171.968L305.315 167.576L306.082 167.113L306.529 167.853V167.853Z" fill="white"/>
<path d="M311.361 163.924L312.18 163.43L313.207 169.179C313.319 169.793 313.289 170.328 313.109 170.79C312.93 171.251 312.615 171.605 312.155 171.836L311.723 171.121C312.283 170.842 312.497 170.301 312.362 169.513L312.349 169.297L307.787 166.082L308.605 165.588L312.103 168.071L311.361 163.924Z" fill="white"/>
<path d="M316.424 158.469C317.259 157.965 318.134 157.836 319.044 158.098C319.954 158.359 320.666 158.916 321.186 159.777C321.706 160.639 321.867 161.529 321.675 162.456C321.483 163.383 320.967 164.105 320.132 164.61L317.737 166.056L314.024 159.906L316.424 158.469ZM319.678 163.838C320.306 163.458 320.679 162.928 320.81 162.249C320.941 161.571 320.806 160.9 320.411 160.245C320.016 159.591 319.485 159.159 318.824 158.959C318.162 158.759 317.515 158.856 316.895 159.23L315.311 160.187L318.088 164.786L319.678 163.838Z" fill="white"/>
<path d="M324.947 155.71L325.713 155.247L328.366 159.639L327.599 160.102L327.141 159.344C327.111 160.15 326.737 160.776 326.005 161.218C325.393 161.587 324.732 161.68 324.023 161.498C323.322 161.31 322.779 160.897 322.389 160.251C321.999 159.606 321.886 158.933 322.047 158.225C322.207 157.517 322.597 156.976 323.217 156.602C323.941 156.165 324.663 156.116 325.405 156.468L324.947 155.71ZM325.666 160.423C326.114 160.153 326.39 159.774 326.501 159.296C326.621 158.813 326.543 158.354 326.273 157.906C326.003 157.458 325.633 157.176 325.149 157.057C324.666 156.938 324.207 157.015 323.759 157.285C323.32 157.55 323.038 157.92 322.932 158.407C322.813 158.891 322.89 159.349 323.161 159.797C323.431 160.245 323.801 160.527 324.284 160.646C324.768 160.766 325.227 160.689 325.666 160.423Z" fill="white"/>
<path d="M329.709 153.846L328.538 154.554L329.973 156.931C330.103 157.146 330.24 157.275 330.383 157.318C330.527 157.361 330.682 157.326 330.854 157.222C331.026 157.118 331.25 156.982 331.495 156.823L331.906 157.503C331.294 157.99 330.772 158.235 330.343 158.224C329.913 158.213 329.534 157.936 329.207 157.394L327.771 155.017L326.902 155.542L326.454 154.801L327.324 154.276L326.721 153.277L327.352 152.59L328.096 153.822L329.267 153.114L329.709 153.846V153.846Z" fill="white"/>
<path d="M332.024 154.917C332.341 155.266 332.704 155.458 333.118 155.502C333.532 155.546 333.953 155.444 334.366 155.195C334.943 154.846 335.235 154.376 335.242 153.784L336.112 153.765C336.081 154.688 335.642 155.4 334.781 155.92C334.083 156.341 333.384 156.469 332.689 156.29C331.984 156.116 331.436 155.695 331.036 155.032C330.635 154.368 330.518 153.687 330.674 152.993C330.84 152.294 331.261 151.746 331.936 151.326C332.582 150.936 333.243 150.843 333.923 151.055C334.604 151.267 335.138 151.685 335.523 152.322C335.59 152.434 335.649 152.551 335.705 152.682L332.024 154.917ZM332.364 152.055C331.951 152.305 331.683 152.619 331.556 153.013C331.43 153.407 331.445 153.821 331.618 154.245L334.555 152.472C334.237 152.1 333.881 151.88 333.492 151.821C333.087 151.772 332.718 151.842 332.364 152.055Z" fill="white"/>
<path d="M307.959 195.292C307.857 196.564 307.24 197.547 306.095 198.239C304.949 198.931 303.788 199.032 302.616 198.53C301.443 198.028 300.411 197.04 299.517 195.559C298.623 194.078 298.229 192.705 298.33 191.433C298.432 190.162 299.054 189.187 300.194 188.486C301.34 187.795 302.501 187.693 303.665 188.201C304.838 188.703 305.869 189.69 306.763 191.172C307.667 192.648 308.06 194.02 307.959 195.292ZM303.014 197.126C303.812 197.514 304.59 197.479 305.348 197.021C306.106 196.564 306.508 195.886 306.536 194.999C306.565 194.112 306.231 193.092 305.528 191.929C304.826 190.767 304.074 189.987 303.267 189.605C302.469 189.217 301.682 189.257 300.924 189.715C300.166 190.172 299.773 190.845 299.744 191.731C299.716 192.618 300.055 193.648 300.762 194.819C301.468 195.968 302.215 196.739 303.014 197.126Z" fill="white"/>
<path d="M310.525 195.317L309.906 194.292L311.178 188.906C311.53 187.483 311.511 186.46 311.126 185.822C310.809 185.297 310.396 184.982 309.9 184.882C309.405 184.782 308.92 184.874 308.455 185.155C307.568 185.691 307.177 186.503 307.291 187.586L305.865 187.601C305.789 186.812 305.927 186.106 306.26 185.47C306.598 184.843 307.076 184.331 307.713 183.946C308.497 183.473 309.342 183.315 310.24 183.478C311.138 183.641 311.843 184.167 312.382 185.041C312.954 185.988 313.023 187.368 312.58 189.164L311.631 193.004L315.886 190.435L316.614 191.641L310.525 195.317Z" fill="white"/>
<path d="M319.128 191.931L318.441 192.369L316.516 177.055L317.203 176.616L319.128 191.931Z" fill="white"/>
<path d="M325.093 178.94C325.891 178.646 326.667 178.589 327.42 178.804C328.167 179.011 328.769 179.482 329.222 180.231C329.773 181.144 329.9 182.055 329.588 182.96C329.277 183.865 328.68 184.589 327.784 185.13C327.07 185.562 326.333 185.783 325.585 185.789C324.836 185.794 324.154 185.56 323.552 185.089L324.228 183.834C325.029 184.537 325.969 184.557 327.055 183.902C327.64 183.548 328.02 183.107 328.2 182.587C328.38 182.068 328.309 181.523 327.981 180.98C327.654 180.437 327.213 180.116 326.655 180.03C326.098 179.943 325.531 180.074 324.954 180.423L324.635 180.615L323.673 180.15L324.073 175.889L319.896 178.411L319.189 177.24L324.83 173.834L325.482 174.933L325.093 178.94Z" fill="white"/>
<path d="M337.593 177.373C337.491 178.645 336.874 179.629 335.729 180.32C334.583 181.012 333.422 181.114 332.258 180.606C331.085 180.104 330.054 179.117 329.16 177.635C328.265 176.154 327.871 174.782 327.964 173.515C328.057 172.248 328.688 171.268 329.828 170.568C330.974 169.876 332.135 169.775 333.307 170.277C334.48 170.779 335.512 171.767 336.406 173.248C337.3 174.729 337.694 176.102 337.593 177.373ZM332.656 179.202C333.454 179.59 334.232 179.555 334.99 179.098C335.748 178.64 336.15 177.962 336.179 177.075C336.207 176.189 335.873 175.168 335.166 173.997C334.459 172.825 333.711 172.055 332.904 171.672C332.106 171.284 331.314 171.316 330.561 171.782C329.804 172.24 329.402 172.917 329.382 173.799C329.353 174.686 329.692 175.715 330.4 176.886C331.11 178.044 331.858 178.815 332.656 179.202Z" fill="white"/>
<path d="M272.123 77.0826C278.33 73.3346 280.324 65.2642 276.576 59.0569C272.827 52.8496 264.757 50.8561 258.55 54.6042C252.343 58.3522 250.349 66.4226 254.097 72.6299C257.845 78.8371 265.915 80.8307 272.123 77.0826Z" fill="white"/>
<path d="M287.111 68.0247C280.91 71.769 272.829 69.7729 269.082 63.5857C265.334 57.3986 267.334 49.3043 273.521 45.5566C279.722 41.8123 287.802 43.8084 291.55 49.9956C295.298 56.1827 293.307 64.2718 287.111 68.0247ZM275.791 49.2978C271.657 51.794 270.332 57.1896 272.823 61.315C275.314 65.4403 280.715 66.7745 284.84 64.2835C288.974 61.7873 290.3 56.3917 287.809 52.2663C285.307 48.1237 279.92 46.793 275.791 49.2978Z" fill="white"/>
<path d="M115.454 313.365C114.724 313.806 113.962 314.073 113.17 314.164C112.389 314.25 111.641 314.144 110.926 313.846L111.257 311.661C111.836 311.906 112.377 312.026 112.879 312.02C113.392 312.008 113.872 311.867 114.319 311.597C115.507 310.88 115.676 309.818 114.827 308.412L111.254 302.494L107.184 304.952L106.108 303.17L112.303 299.429L116.884 307.014C117.7 308.366 117.976 309.575 117.712 310.641C117.46 311.7 116.707 312.609 115.454 313.365ZM125.99 306.936C125.096 307.476 124.186 307.766 123.258 307.805C122.324 307.834 121.451 307.633 120.64 307.2C119.828 306.768 119.163 306.122 118.643 305.261C118.116 304.389 117.854 303.499 117.856 302.59C117.851 301.671 118.082 300.81 118.55 300.008C119.017 299.205 119.697 298.534 120.591 297.995C121.495 297.448 122.412 297.155 123.339 297.116C124.278 297.069 125.144 297.26 125.938 297.688C126.743 298.109 127.411 298.761 127.944 299.644C128.464 300.505 128.727 301.395 128.731 302.314C128.747 303.227 128.519 304.093 128.048 304.913C127.581 305.716 126.895 306.39 125.99 306.936ZM124.934 305.187C125.435 304.885 125.816 304.506 126.077 304.051C126.338 303.596 126.452 303.096 126.42 302.55C126.399 301.998 126.22 301.444 125.885 300.888C125.543 300.321 125.135 299.905 124.663 299.64C124.195 299.358 123.699 299.226 123.175 299.245C122.651 299.264 122.144 299.421 121.653 299.717C121.152 300.02 120.771 300.399 120.51 300.854C120.261 301.302 120.146 301.802 120.167 302.355C120.182 302.896 120.36 303.45 120.703 304.017C121.038 304.573 121.446 304.989 121.924 305.265C122.403 305.54 122.899 305.672 123.412 305.66C123.936 305.641 124.444 305.483 124.934 305.187ZM132.157 291.011C132.854 290.589 133.558 290.351 134.267 290.294C134.988 290.231 135.677 290.387 136.335 290.763C136.987 291.128 137.579 291.752 138.112 292.635L141.133 297.637L139.089 298.871L136.227 294.13C135.759 293.356 135.225 292.891 134.625 292.733C134.035 292.569 133.413 292.684 132.759 293.079C132.279 293.368 131.913 293.723 131.661 294.143C131.409 294.563 131.298 295.031 131.328 295.549C131.362 296.049 131.557 296.593 131.912 297.181L134.577 301.595L132.534 302.829L125.21 290.699L127.253 289.465L130.728 295.22L129.852 294.767C129.822 294.027 130.006 293.335 130.406 292.692C130.811 292.032 131.394 291.471 132.157 291.011ZM143.348 284.253C144.045 283.832 144.749 283.593 145.458 283.537C146.178 283.474 146.868 283.63 147.526 284.006C148.178 284.371 148.77 284.995 149.303 285.877L152.323 290.88L150.28 292.114L147.418 287.373C146.95 286.599 146.416 286.133 145.815 285.976C145.225 285.811 144.604 285.927 143.95 286.321C143.47 286.611 143.104 286.966 142.852 287.386C142.6 287.806 142.489 288.274 142.519 288.792C142.553 289.291 142.748 289.836 143.103 290.424L145.768 294.838L143.725 296.072L138.454 287.342L140.399 286.168L141.821 288.522L141.043 288.01C141.012 287.27 141.197 286.578 141.597 285.935C142.001 285.275 142.585 284.714 143.348 284.253ZM159.63 286.468L152.72 275.025L157.722 272.005C158.965 271.254 160.199 270.836 161.426 270.75C162.653 270.663 163.785 270.887 164.821 271.421C165.857 271.956 166.724 272.8 167.422 273.955C168.113 275.1 168.457 276.26 168.453 277.437C168.444 278.603 168.115 279.709 167.467 280.754C166.819 281.8 165.874 282.697 164.632 283.448L159.63 286.468ZM160.669 283.387L163.448 281.709C164.309 281.189 164.951 280.578 165.375 279.876C165.81 279.167 166.018 278.417 166.001 277.624C165.994 276.825 165.754 276.033 165.28 275.249C164.8 274.453 164.211 273.872 163.513 273.505C162.82 273.12 162.059 272.955 161.229 273.01C160.411 273.058 159.571 273.342 158.71 273.862L155.931 275.54L160.669 283.387ZM176.932 276.177C176.038 276.717 175.127 277.006 174.199 277.046C173.265 277.075 172.392 276.873 171.581 276.441C170.77 276.009 170.104 275.362 169.584 274.501C169.058 273.629 168.796 272.739 168.797 271.831C168.793 270.912 169.024 270.051 169.491 269.248C169.958 268.446 170.639 267.775 171.532 267.235C172.437 266.689 173.353 266.396 174.281 266.356C175.219 266.31 176.086 266.501 176.879 266.929C177.684 267.35 178.353 268.002 178.886 268.885C179.406 269.746 179.668 270.636 179.673 271.555C179.689 272.467 179.461 273.334 178.989 274.154C178.522 274.956 177.836 275.631 176.932 276.177ZM175.875 274.428C176.377 274.125 176.758 273.746 177.018 273.292C177.279 272.837 177.393 272.336 177.361 271.791C177.34 271.238 177.162 270.684 176.826 270.128C176.484 269.562 176.077 269.146 175.604 268.881C175.136 268.598 174.64 268.466 174.116 268.485C173.592 268.504 173.085 268.662 172.595 268.958C172.094 269.261 171.713 269.639 171.452 270.094C171.202 270.543 171.088 271.043 171.109 271.595C171.124 272.137 171.302 272.691 171.644 273.257C171.98 273.813 172.387 274.229 172.866 274.505C173.345 274.781 173.841 274.913 174.354 274.9C174.878 274.882 175.385 274.724 175.875 274.428ZM187.648 269.706C186.678 270.292 185.713 270.615 184.752 270.674C183.796 270.716 182.912 270.521 182.101 270.089C181.301 269.65 180.641 269 180.121 268.139C179.594 267.267 179.321 266.384 179.301 265.489C179.285 264.576 179.5 263.725 179.946 262.936C180.402 262.14 181.066 261.478 181.938 260.952C182.788 260.439 183.657 260.167 184.546 260.136C185.434 260.105 186.273 260.312 187.063 260.758C187.852 261.203 188.523 261.883 189.076 262.799C189.129 262.886 189.182 262.987 189.237 263.103C189.303 263.212 189.36 263.319 189.408 263.423L182.134 267.816L181.315 266.459L187.51 262.718L186.966 263.627C186.674 263.119 186.304 262.74 185.856 262.49C185.407 262.24 184.927 262.122 184.414 262.134C183.912 262.14 183.415 262.291 182.925 262.587C182.424 262.889 182.048 263.265 181.798 263.713C181.559 264.155 181.449 264.638 181.468 265.162C181.491 265.668 181.661 266.183 181.977 266.706L182.174 267.033C182.49 267.556 182.89 267.947 183.373 268.205C183.856 268.464 184.382 268.57 184.949 268.525C185.517 268.48 186.084 268.286 186.65 267.944C187.141 267.648 187.536 267.305 187.836 266.916C188.137 266.526 188.341 266.076 188.448 265.565L190.304 266.162C190.188 266.857 189.906 267.51 189.458 268.123C189.014 268.718 188.411 269.246 187.648 269.706Z" fill="white"/>
<path d="M76.6884 194.65L53.5747 208.578C52.0949 209.47 50.1482 208.987 49.2564 207.507L38.9421 190.39C38.0503 188.91 38.5331 186.963 40.013 186.072L63.1266 172.144C64.6065 171.252 66.5532 171.735 67.4449 173.215L77.7593 190.332C78.6596 191.807 78.1769 193.753 76.6884 194.65Z" fill="#F6C859"/>
<path d="M60.0457 200.584C59.9259 200.656 59.7649 200.66 59.6466 200.58C59.4631 200.469 59.413 200.231 59.524 200.047C59.8535 199.51 60.2305 198.665 60.1275 197.643C59.9983 196.345 59.2102 195.327 58.9567 195.352C58.8899 195.357 58.755 195.578 58.6714 195.71C58.4528 196.063 58.1539 196.535 57.5547 196.663C56.964 196.786 56.4616 196.494 56.2181 196.361C54.6492 195.44 52.2687 192.012 51.9939 189.776C51.9034 189.026 52.0479 188.472 52.4257 188.093C52.8173 187.717 53.2985 187.684 53.6821 187.663C53.999 187.647 54.1582 187.621 54.2094 187.531C54.404 187.158 53.715 186.034 52.7461 185.393C51.8903 184.824 50.9618 184.754 50.3385 184.803C50.1244 184.816 49.9459 184.655 49.925 184.446C49.9126 184.232 50.0733 184.054 50.2822 184.033C51.022 183.983 52.1304 184.062 53.1662 184.755C54.1917 185.432 55.3901 186.937 54.8832 187.895C54.6255 188.377 54.1306 188.407 53.7298 188.438C53.4216 188.449 53.1458 188.476 52.9578 188.647C52.7082 188.891 52.7124 189.343 52.7525 189.68C52.9926 191.646 55.2151 194.889 56.6005 195.699C56.8355 195.837 57.1064 195.977 57.3837 195.915C57.6525 195.858 57.8011 195.64 58.0077 195.306C58.2109 194.985 58.4329 194.618 58.8782 194.583C59.8303 194.499 60.7463 196.116 60.8878 197.57C61.0118 198.801 60.5684 199.826 60.179 200.457C60.1432 200.514 60.097 200.553 60.0457 200.584Z" fill="#7D662D"/>
<path d="M52.4914 190.294L46.5462 193.876C46.3666 193.985 46.125 193.932 46.0116 193.744C45.9033 193.564 45.956 193.323 46.1442 193.209L52.0894 189.627C52.269 189.518 52.5106 189.571 52.624 189.759C52.7374 189.947 52.6711 190.186 52.4914 190.294Z" fill="#7D662D"/>
<path d="M56.0754 196.241L50.1302 199.824C49.9506 199.932 49.709 199.879 49.5956 199.691C49.4873 199.511 49.54 199.27 49.7281 199.156L55.6734 195.574C55.853 195.466 56.0946 195.518 56.208 195.707C56.3163 195.886 56.2551 196.133 56.0754 196.241Z" fill="#7D662D"/>
<path d="M66.9737 196.413C66.9224 196.444 66.8659 196.466 66.7992 196.471C66.0593 196.521 64.951 196.442 63.9151 195.749C62.6958 194.944 61.6943 193.379 62.2134 192.577C62.4577 192.208 62.8807 192.175 63.2592 192.145C63.6513 192.118 63.9133 192.089 64.0894 191.878C64.2859 191.643 64.2715 191.29 64.2643 191.084C64.1962 189.481 62.3671 186.001 60.7413 184.87C60.4617 184.677 60.0554 184.467 59.7318 184.569C59.5264 184.634 59.307 184.522 59.2467 184.325C59.1812 184.119 59.2938 183.9 59.4907 183.84C59.9974 183.674 60.568 183.808 61.1803 184.244C63.0343 185.541 64.9562 189.233 65.0281 191.055C65.0406 191.328 65.064 191.908 64.6795 192.373C64.2864 192.843 63.7213 192.892 63.3154 192.915C63.1596 192.928 62.8924 192.949 62.8651 193C62.7251 193.213 63.2565 194.385 64.3438 195.106C65.1996 195.675 66.1281 195.745 66.7514 195.696C66.9655 195.683 67.144 195.844 67.1649 196.053C67.1772 196.209 67.0935 196.341 66.9737 196.413Z" fill="#7D662D"/>
<path d="M58.3011 184.997C58.1642 185.079 57.9844 185.071 57.8506 184.965C55.8622 183.272 56.5372 180.638 56.9026 180.044C57.0136 179.861 57.2516 179.811 57.4351 179.922C57.6186 180.033 57.6687 180.271 57.5577 180.454C57.3904 180.718 56.6563 182.945 58.3513 184.384C58.5143 184.519 58.5336 184.764 58.3986 184.927C58.3644 184.947 58.3353 184.976 58.3011 184.997Z" fill="#7D662D"/>
<path d="M67.3508 181.343L61.4056 184.925C61.226 185.033 60.9844 184.981 60.871 184.793C60.7627 184.613 60.8153 184.371 61.0035 184.258L66.9488 180.675C67.1284 180.567 67.37 180.62 67.4834 180.808C67.5883 181.001 67.5305 181.234 67.3508 181.343Z" fill="#7D662D"/>
<path d="M70.9329 187.286L64.9876 190.869C64.808 190.977 64.5664 190.924 64.453 190.736C64.3447 190.556 64.3974 190.315 64.5856 190.201L70.5308 186.619C70.7104 186.511 70.952 186.563 71.0654 186.751C71.1651 186.936 71.1125 187.178 70.9329 187.286Z" fill="#7D662D"/>
<g filter="url(#filter0_d_904_1408)">
<path d="M457.894 56.5005L547.264 204.815C547.496 205.2 547.72 205.59 547.918 205.995C548.038 206.214 548.141 206.444 548.261 206.663C552.592 215.9 549.319 227.13 540.389 232.512L286.036 385.779C282.006 388.207 277.486 389.065 273.142 388.511C272.962 388.503 272.766 388.469 272.576 388.444C266.849 387.569 261.546 384.246 258.335 378.917L168.964 230.603C168.784 230.303 168.612 229.999 168.454 229.698C168.318 229.453 168.205 229.206 168.077 228.957C163.577 219.67 166.819 208.33 175.835 202.897L430.188 49.6298C433.593 47.5782 437.385 46.6341 441.104 46.7487C441.503 46.7531 441.912 46.7746 442.318 46.8098C442.572 46.8435 442.829 46.8636 443.092 46.9145C449.022 47.621 454.569 50.983 457.894 56.5005Z" fill="url(#paint0_linear_904_1408)"/>
<mask id="mask0_904_1408" style="mask-type:alpha" maskUnits="userSpaceOnUse" x="166" y="47" width="384" height="343">
<path d="M456.82 57.659L546.279 206.119C546.511 206.504 546.735 206.895 546.933 207.3C547.053 207.52 547.157 207.749 547.277 207.968C551.617 217.212 548.387 228.425 539.503 233.779L286.476 386.247C282.467 388.662 277.966 389.508 273.635 388.943C273.456 388.934 273.261 388.899 273.071 388.874C267.362 387.984 262.069 384.648 258.855 379.314L169.396 230.854C169.216 230.554 169.044 230.249 168.885 229.948C168.749 229.703 168.636 229.457 168.508 229.207C163.999 219.914 167.198 208.59 176.167 203.186L429.195 50.717C432.581 48.6762 436.357 47.7431 440.063 47.8678C440.461 47.8733 440.869 47.8959 441.274 47.9322C441.526 47.9666 441.782 47.9874 442.045 48.0389C447.956 48.7611 453.492 52.1361 456.82 57.659Z" fill="url(#paint1_linear_904_1408)"/>
</mask>
<g mask="url(#mask0_904_1408)">
</g>
<g clip-path="url(#clip0_904_1408)">
<path d="M230.709 272.116L231.59 273.579L229.463 274.732L231.675 275.674L230.844 277.236L228.693 275.989L228.791 278.473L227.047 278.462L227.231 276.078L225.235 277.409L224.353 275.946L226.473 274.82L224.269 273.852L225.074 272.305L227.224 273.551L227.127 271.068L228.896 271.063L228.706 273.475L230.709 272.116Z" fill="white"/>
<path d="M241.394 265.679L242.276 267.142L240.149 268.295L242.36 269.236L241.529 270.798L239.379 269.552L239.476 272.035L237.732 272.025L237.916 269.64L235.92 270.971L235.039 269.509L237.159 268.383L234.954 267.414L235.76 265.868L237.91 267.114L237.813 264.63L239.582 264.625L239.391 267.037L241.394 265.679Z" fill="white"/>
<path d="M252.087 259.235L252.968 260.698L250.841 261.852L253.053 262.793L252.222 264.355L250.071 263.108L250.169 265.592L248.425 265.581L248.609 263.197L246.612 264.528L245.731 263.065L247.851 261.939L245.647 260.971L246.452 259.424L248.602 260.671L248.505 258.187L250.274 258.182L250.084 260.594L252.087 259.235Z" fill="white"/>
<path d="M262.77 252.796L263.652 254.259L261.525 255.412L263.736 256.353L262.905 257.915L260.755 256.669L260.852 259.152L259.108 259.142L259.292 256.757L257.296 258.089L256.415 256.626L258.535 255.5L256.33 254.531L257.136 252.985L259.286 254.231L259.189 251.748L260.958 251.743L260.767 254.155L262.77 252.796Z" fill="white"/>
<path d="M280.872 241.89L281.753 243.353L279.627 244.506L281.838 245.447L281.007 247.009L278.856 245.763L278.954 248.246L277.21 248.236L277.394 245.851L275.398 247.182L274.516 245.72L276.636 244.594L274.432 243.625L275.237 242.079L277.387 243.325L277.29 240.841L279.06 240.836L278.869 243.248L280.872 241.89Z" fill="white"/>
<path d="M291.556 235.452L292.437 236.915L290.31 238.068L292.521 239.01L291.69 240.572L289.54 239.325L289.637 241.809L287.894 241.798L288.078 239.414L286.081 240.745L285.2 239.282L287.32 238.156L285.115 237.188L285.921 235.641L288.071 236.887L287.974 234.404L289.743 234.399L289.552 236.811L291.556 235.452Z" fill="white"/>
<path d="M302.249 229.009L303.13 230.472L301.004 231.625L303.215 232.566L302.384 234.128L300.233 232.882L300.331 235.365L298.587 235.355L298.771 232.97L296.775 234.302L295.893 232.839L298.013 231.713L295.809 230.744L296.614 229.198L298.764 230.444L298.667 227.961L300.437 227.956L300.246 230.368L302.249 229.009Z" fill="white"/>
<path d="M312.933 222.569L313.814 224.032L311.687 225.186L313.898 226.127L313.067 227.689L310.917 226.442L311.014 228.926L309.271 228.915L309.454 226.531L307.458 227.862L306.577 226.399L308.697 225.273L306.492 224.305L307.298 222.758L309.448 224.004L309.351 221.521L311.12 221.516L310.929 223.928L312.933 222.569Z" fill="white"/>
<path d="M331.034 211.663L331.916 213.126L329.789 214.279L332 215.221L331.169 216.783L329.019 215.536L329.116 218.02L327.372 218.009L327.556 215.625L325.56 216.956L324.678 215.493L326.798 214.367L324.594 213.398L325.399 211.852L327.55 213.098L327.452 210.615L329.222 210.61L329.031 213.022L331.034 211.663Z" fill="white"/>
<path d="M341.719 205.226L342.6 206.688L340.473 207.842L342.685 208.783L341.853 210.345L339.703 209.099L339.8 211.582L338.057 211.572L338.241 209.187L336.244 210.518L335.363 209.056L337.483 207.93L335.278 206.961L336.084 205.414L338.234 206.661L338.137 204.177L339.906 204.172L339.716 206.584L341.719 205.226Z" fill="white"/>
<path d="M352.411 198.782L353.292 200.245L351.166 201.398L353.377 202.34L352.546 203.902L350.396 202.655L350.493 205.139L348.749 205.128L348.933 202.744L346.937 204.075L346.055 202.612L348.175 201.486L345.971 200.518L346.776 198.971L348.926 200.217L348.829 197.734L350.599 197.729L350.408 200.141L352.411 198.782Z" fill="white"/>
<path d="M363.096 192.343L363.977 193.806L361.85 194.959L364.062 195.9L363.23 197.462L361.08 196.216L361.177 198.699L359.434 198.689L359.618 196.304L357.621 197.636L356.74 196.173L358.86 195.047L356.655 194.078L357.461 192.532L359.611 193.778L359.514 191.295L361.283 191.289L361.092 193.701L363.096 192.343Z" fill="white"/>
<path d="M382.703 199.477L381.661 197.749L383.831 188.617C384.43 186.205 384.404 184.459 383.755 183.381C383.213 182.483 382.517 181.947 381.671 181.781C380.819 181.606 380.002 181.76 379.215 182.234C377.71 183.141 377.043 184.511 377.219 186.352L374.806 186.372C374.687 185.033 374.911 183.837 375.481 182.77C376.051 181.704 376.875 180.846 377.953 180.196C379.287 179.392 380.713 179.127 382.236 179.411C383.76 179.694 384.964 180.589 385.861 182.077C386.83 183.686 386.942 186.02 386.187 189.063L384.559 195.572L391.77 191.226L393.007 193.279L382.708 199.486L382.703 199.477Z" fill="white"/>
<path d="M396.905 178.094C398.259 177.593 399.574 177.511 400.847 177.864C402.121 178.216 403.135 179.027 403.892 180.285C404.825 181.833 405.032 183.376 404.504 184.919C403.976 186.461 402.961 187.679 401.438 188.597C400.223 189.329 398.981 189.704 397.705 189.715C396.429 189.726 395.282 189.333 394.254 188.518L395.4 186.393C396.757 187.581 398.355 187.621 400.194 186.513C401.178 185.92 401.827 185.179 402.137 184.281C402.453 183.391 402.322 182.478 401.766 181.555C401.209 180.631 400.463 180.089 399.524 179.944C398.585 179.798 397.621 180.017 396.637 180.61L396.09 180.94L394.46 180.15L395.15 172.936L388.058 177.209L386.863 175.225L396.435 169.457L397.545 171.318L396.905 178.094Z" fill="white"/>
<path d="M419.452 170.5L420.647 172.485L418.714 173.649L420.539 176.678L418.417 177.956L416.593 174.928L408.458 179.83L407.262 177.845L406.392 163.456L408.667 162.085L409.537 176.474L415.397 172.943L412.675 168.427L414.797 167.148L417.518 171.665L419.452 170.5Z" fill="white"/>
<path d="M424.952 160.761C426.457 159.854 428 159.531 429.58 159.791C431.159 160.052 432.418 160.961 433.362 162.526C434.295 164.075 434.501 165.618 433.982 167.155C433.462 168.692 432.439 169.916 430.916 170.833C429.701 171.565 428.44 171.929 427.126 171.916C425.817 171.911 424.64 171.467 423.593 170.581L424.771 168.472C425.454 169.122 426.215 169.456 427.065 169.492C427.914 169.528 428.782 169.285 429.663 168.754C430.664 168.151 431.322 167.405 431.632 166.507C431.947 165.617 431.817 164.705 431.261 163.781C430.704 162.857 429.958 162.315 429.019 162.17C428.08 162.024 427.125 162.239 426.15 162.826L421.641 165.543L417.23 156.925L425.981 151.652L427.177 153.637L420.359 157.745L422.634 162.158L424.952 160.761V160.761Z" fill="white"/>
<path d="M260.333 332.623C259.401 333.185 258.445 333.341 257.467 333.091C256.488 332.841 255.735 332.269 255.194 331.37C254.653 330.472 254.499 329.539 254.735 328.557C254.971 327.575 255.555 326.803 256.488 326.242C257.052 325.901 257.648 325.729 258.278 325.711C258.914 325.701 259.498 325.838 260.037 326.132L259.574 326.971C259.188 326.737 258.772 326.626 258.297 326.632C257.823 326.638 257.381 326.776 256.962 327.029C256.252 327.456 255.81 328.038 255.638 328.759C255.466 329.481 255.581 330.193 255.993 330.877C256.4 331.553 256.968 331.992 257.695 332.172C258.413 332.358 259.134 332.238 259.844 331.81C260.263 331.558 260.586 331.223 260.818 330.815C261.045 330.398 261.142 329.979 261.12 329.537L262.073 329.511C262.089 330.119 261.943 330.709 261.638 331.266C261.337 331.832 260.898 332.283 260.333 332.623Z" fill="white"/>
<path d="M264.737 323.813L265.498 323.354L268.148 327.751L267.387 328.21L266.933 327.457C266.898 328.271 266.526 328.891 265.799 329.329C265.183 329.701 264.527 329.793 263.818 329.602C263.114 329.42 262.57 329.002 262.178 328.351C261.786 327.701 261.676 327.033 261.839 326.317C262.007 325.61 262.389 325.064 263.005 324.693C263.732 324.255 264.464 324.211 265.191 324.566L264.737 323.813ZM265.445 328.528C265.89 328.26 266.173 327.88 266.292 327.4C266.411 326.92 266.33 326.456 266.062 326.011C265.794 325.566 265.422 325.278 264.942 325.159C264.462 325.04 264.001 325.107 263.548 325.381C263.112 325.643 262.828 326.024 262.718 326.499C262.607 326.973 262.68 327.443 262.948 327.887C263.216 328.332 263.588 328.621 264.068 328.74C264.545 328.873 265 328.797 265.445 328.528Z" fill="white"/>
<path d="M267.871 322.937C267.79 322.24 268.087 321.688 268.745 321.291L269.23 322.095C268.843 322.305 268.58 322.603 268.444 322.977C268.307 323.35 268.382 323.784 268.67 324.263L270.072 326.589L269.311 327.048L266.662 322.651L267.423 322.192L267.871 322.937V322.937Z" fill="white"/>
<path d="M271.892 317.111L272.654 316.652L276.36 322.803L275.599 323.262L275.145 322.509C275.111 323.322 274.738 323.943 274.011 324.381C273.395 324.752 272.739 324.844 272.03 324.654C271.326 324.472 270.782 324.053 270.39 323.403C269.998 322.753 269.888 322.085 270.051 321.369C270.219 320.661 270.602 320.116 271.217 319.745C271.945 319.307 272.676 319.262 273.403 319.617L271.892 317.111ZM273.657 323.58C274.102 323.312 274.385 322.932 274.504 322.452C274.623 321.972 274.542 321.508 274.274 321.063C274.006 320.618 273.634 320.329 273.154 320.21C272.674 320.091 272.213 320.159 271.76 320.432C271.324 320.695 271.04 321.076 270.93 321.551C270.819 322.025 270.892 322.495 271.16 322.939C271.428 323.384 271.8 323.673 272.28 323.792C272.757 323.925 273.212 323.848 273.657 323.58Z" fill="white"/>
<path d="M279.899 312.284L280.712 311.795L284.418 317.945L283.606 318.435L281.935 315.663L278.95 317.462L280.62 320.234L279.799 320.729L276.093 314.578L276.914 314.083L278.486 316.692L281.472 314.893L279.899 312.284V312.284Z" fill="white"/>
<path d="M289.028 314.411C288.842 315.129 288.429 315.682 287.787 316.068C287.146 316.455 286.464 316.562 285.743 316.391C285.021 316.219 284.469 315.805 284.077 315.155C283.686 314.505 283.578 313.824 283.763 313.106C283.949 312.388 284.354 311.841 285.004 311.449C285.654 311.057 286.327 310.955 287.048 311.126C287.77 311.298 288.322 311.711 288.714 312.362C289.105 313.012 289.213 313.693 289.028 314.411ZM287.339 315.324C287.775 315.061 288.064 314.689 288.174 314.214C288.293 313.734 288.217 313.279 287.949 312.834C287.681 312.389 287.309 312.1 286.829 311.981C286.349 311.862 285.894 311.939 285.457 312.202C285.021 312.464 284.741 312.832 284.622 313.311C284.503 313.791 284.584 314.255 284.852 314.7C285.12 315.145 285.493 315.434 285.967 315.544C286.447 315.663 286.903 315.587 287.339 315.324Z" fill="white"/>
<path d="M290.945 314.013L287.079 307.598L287.84 307.139L291.706 313.555L290.945 314.013Z" fill="white"/>
<path d="M292.816 304.504L293.578 304.045L297.284 310.195L296.522 310.654L296.069 309.901C296.034 310.715 295.662 311.336 294.935 311.774C294.319 312.145 293.663 312.237 292.954 312.046C292.25 311.865 291.706 311.446 291.314 310.796C290.922 310.146 290.811 309.478 290.974 308.762C291.143 308.054 291.525 307.509 292.141 307.137C292.868 306.699 293.6 306.655 294.327 307.01L292.816 304.504ZM294.581 310.973C295.026 310.705 295.309 310.324 295.428 309.844C295.547 309.364 295.466 308.9 295.198 308.456C294.93 308.011 294.557 307.722 294.078 307.603C293.598 307.484 293.137 307.552 292.684 307.825C292.248 308.088 291.964 308.469 291.853 308.943C291.743 309.418 291.816 309.887 292.084 310.332C292.352 310.777 292.724 311.065 293.204 311.184C293.68 311.317 294.136 311.241 294.581 310.973Z" fill="white"/>
<path d="M297.865 307.326C298.179 307.673 298.544 307.872 298.955 307.916C299.367 307.96 299.784 307.86 300.203 307.607C300.785 307.257 301.075 306.79 301.083 306.203L301.955 306.179C301.924 307.095 301.483 307.815 300.619 308.336C299.918 308.759 299.224 308.885 298.52 308.703C297.816 308.521 297.264 308.108 296.861 307.441C296.465 306.782 296.343 306.097 296.508 305.403C296.673 304.709 297.095 304.151 297.771 303.744C298.412 303.358 299.082 303.269 299.757 303.48C300.441 303.686 300.968 304.115 301.354 304.757C301.421 304.868 301.48 304.984 301.535 305.114L297.865 307.326ZM298.218 304.466C297.807 304.714 297.537 305.04 297.411 305.43C297.285 305.821 297.299 306.232 297.471 306.653L300.406 304.885C300.085 304.507 299.731 304.289 299.337 304.235C298.943 304.181 298.568 304.255 298.218 304.466Z" fill="white"/>
<path d="M302.132 302.294C302.05 301.597 302.347 301.045 303.006 300.648L303.491 301.452C303.104 301.662 302.841 301.96 302.704 302.334C302.568 302.708 302.642 303.141 302.931 303.62L304.333 305.947L303.572 306.406L300.922 302.009L301.684 301.55L302.132 302.294Z" fill="white"/>
<path d="M308.125 297.516C308.639 297.207 309.156 297.117 309.66 297.257C310.163 297.396 310.585 297.748 310.921 298.304L312.549 301.007L311.788 301.466L310.19 298.814C309.974 298.455 309.715 298.238 309.399 298.16C309.084 298.081 308.762 298.147 308.42 298.353C308.035 298.585 307.808 298.885 307.713 299.269C307.626 299.648 307.723 300.079 308.022 300.576L309.424 302.902L308.662 303.361L306.013 298.964L306.774 298.505L307.156 299.139C307.163 298.435 307.484 297.903 308.125 297.516Z" fill="white"/>
<path d="M314.6 293.766L315.362 293.307L318.011 297.704L317.25 298.163L316.796 297.41C316.762 298.224 316.39 298.844 315.662 299.283C315.047 299.654 314.391 299.746 313.681 299.555C312.977 299.373 312.433 298.955 312.041 298.305C311.65 297.654 311.539 296.987 311.702 296.27C311.87 295.563 312.253 295.017 312.869 294.646C313.596 294.208 314.327 294.164 315.054 294.519L314.6 293.766ZM315.308 298.482C315.753 298.214 316.037 297.833 316.156 297.353C316.275 296.873 316.193 296.409 315.925 295.964C315.657 295.52 315.285 295.231 314.805 295.112C314.325 294.993 313.865 295.06 313.411 295.334C312.975 295.597 312.691 295.977 312.581 296.452C312.47 296.927 312.543 297.396 312.811 297.841C313.079 298.285 313.452 298.574 313.931 298.693C314.416 298.821 314.872 298.744 315.308 298.482Z" fill="white"/>
<path d="M321.205 289.633C321.701 289.334 322.192 289.259 322.691 289.39C323.19 289.521 323.598 289.87 323.928 290.417L325.578 293.154L324.816 293.613L323.182 290.902C322.976 290.559 322.731 290.346 322.443 290.274C322.15 290.194 321.862 290.239 321.571 290.415C321.246 290.611 321.048 290.882 320.98 291.214C320.912 291.546 321.024 291.945 321.297 292.399L322.772 294.845L322.01 295.304L320.376 292.592C320.17 292.25 319.925 292.036 319.654 291.955C319.37 291.87 319.09 291.91 318.8 292.085C318.475 292.281 318.276 292.552 318.197 292.903C318.117 293.254 318.207 293.655 318.475 294.1L319.949 296.546L319.187 297.005L316.538 292.608L317.299 292.149L317.655 292.74C317.671 292.089 317.968 291.595 318.541 291.249C319.131 290.894 319.717 290.879 320.281 291.215C320.277 290.53 320.589 290.004 321.205 289.633Z" fill="white"/>
<path d="M326.067 290.331C326.381 290.679 326.746 290.878 327.158 290.922C327.569 290.966 327.986 290.866 328.406 290.613C328.987 290.263 329.278 289.796 329.285 289.209L330.157 289.185C330.126 290.101 329.685 290.821 328.822 291.342C328.12 291.765 327.427 291.891 326.722 291.709C326.018 291.527 325.466 291.114 325.064 290.446C324.667 289.788 324.546 289.103 324.71 288.409C324.875 287.715 325.297 287.157 325.973 286.75C326.615 286.364 327.284 286.275 327.959 286.486C328.643 286.692 329.17 287.121 329.556 287.762C329.623 287.874 329.682 287.99 329.737 288.12L326.067 290.331ZM326.411 287.477C326.001 287.725 325.731 288.051 325.604 288.441C325.478 288.832 325.493 289.243 325.665 289.664L328.599 287.896C328.278 287.518 327.925 287.3 327.531 287.246C327.137 287.192 326.762 287.266 326.411 287.477Z" fill="white"/>
<path d="M409.985 245.606L412.842 243.885L413.306 244.655L409.628 246.871L405.922 240.721L409.557 238.53L410.021 239.3L407.207 240.996L408.346 242.886L410.938 241.324L411.397 242.086L408.805 243.648L409.985 245.606Z" fill="white"/>
<path d="M418.033 241.818L417.134 242.359L414.903 241.442L414.671 243.844L413.773 244.385L414.092 241.103L411.226 239.926L412.132 239.38L414.179 240.222L414.399 238.014L415.298 237.473L414.998 240.556L418.033 241.818Z" fill="white"/>
<path d="M418.456 235.418C419.072 235.047 419.728 234.955 420.437 235.146C421.147 235.336 421.685 235.746 422.077 236.396C422.469 237.046 422.58 237.714 422.417 238.43C422.248 239.138 421.866 239.683 421.25 240.055C420.523 240.493 419.791 240.537 419.065 240.182L420.58 242.697L419.819 243.156L416.112 237.005L416.874 236.547L417.327 237.299C417.348 236.482 417.729 235.856 418.456 235.418ZM420.702 239.359C421.138 239.096 421.422 238.715 421.532 238.24C421.651 237.76 421.57 237.296 421.302 236.852C421.034 236.407 420.662 236.118 420.182 235.999C419.702 235.88 419.241 235.948 418.805 236.211C418.36 236.479 418.077 236.859 417.958 237.339C417.839 237.819 417.92 238.283 418.188 238.728C418.456 239.173 418.828 239.461 419.308 239.58C419.788 239.699 420.257 239.627 420.702 239.359Z" fill="white"/>
<path d="M421.563 232.602C421.418 232.69 421.259 232.716 421.108 232.678C420.943 232.637 420.829 232.543 420.746 232.407C420.658 232.261 420.638 232.11 420.67 231.951C420.711 231.787 420.799 231.663 420.945 231.575C421.082 231.493 421.232 231.472 421.397 231.513C421.561 231.554 421.676 231.648 421.764 231.793C421.846 231.93 421.867 232.081 421.835 232.24C421.803 232.399 421.709 232.514 421.563 232.602ZM424.313 238.035L421.663 233.638L422.424 233.179L425.074 237.576L424.313 238.035Z" fill="white"/>
<path d="M424.801 232.749C424.719 232.052 425.016 231.5 425.675 231.103L426.159 231.907C425.773 232.117 425.51 232.416 425.373 232.789C425.237 233.163 425.311 233.596 425.6 234.075L427.002 236.402L426.241 236.861L423.591 232.464L424.353 232.005L424.801 232.749Z" fill="white"/>
<path d="M429.643 228.828L430.464 228.333L431.482 234.086C431.593 234.696 431.56 235.24 431.381 235.698C431.202 236.156 430.881 236.513 430.429 236.75L430.001 236.04C430.566 235.758 430.779 235.221 430.64 234.43L430.628 234.216L426.073 230.991L426.894 230.496L430.387 232.985L429.643 228.828Z" fill="white"/>
<path d="M434.724 223.367C435.563 222.862 436.436 222.743 437.348 222.999C438.259 223.254 438.976 223.825 439.492 224.68C440.012 225.544 440.177 226.436 439.977 227.361C439.776 228.287 439.264 229.004 438.425 229.509L436.022 230.957L432.315 224.807L434.719 223.358L434.724 223.367ZM437.967 228.747C438.591 228.371 438.97 227.839 439.109 227.161C439.249 226.482 439.11 225.808 438.719 225.158C438.322 224.499 437.795 224.07 437.13 223.876C436.465 223.682 435.818 223.769 435.193 224.145L433.611 225.099L436.389 229.71L437.972 228.756L437.967 228.747Z" fill="white"/>
<path d="M443.254 220.627L444.015 220.168L446.664 224.565L445.903 225.024L445.45 224.271C445.415 225.085 445.043 225.706 444.316 226.144C443.7 226.515 443.044 226.607 442.335 226.417C441.63 226.235 441.087 225.816 440.695 225.166C440.303 224.516 440.192 223.848 440.355 223.132C440.523 222.424 440.906 221.879 441.522 221.507C442.249 221.069 442.98 221.025 443.707 221.38L443.254 220.627ZM443.961 225.343C444.406 225.075 444.69 224.694 444.809 224.214C444.928 223.735 444.846 223.271 444.578 222.826C444.31 222.381 443.938 222.092 443.458 221.973C442.979 221.854 442.518 221.922 442.065 222.195C441.628 222.458 441.345 222.839 441.234 223.313C441.124 223.788 441.197 224.257 441.465 224.702C441.733 225.147 442.105 225.436 442.585 225.555C443.065 225.674 443.525 225.606 443.961 225.343Z" fill="white"/>
<path d="M448.017 218.761L446.845 219.467L448.283 221.854C448.412 222.068 448.547 222.196 448.69 222.239C448.832 222.281 448.986 222.247 449.171 222.147C449.35 222.039 449.564 221.91 449.811 221.738L450.223 222.422C449.607 222.91 449.089 223.152 448.654 223.146C448.227 223.135 447.852 222.86 447.522 222.313L446.083 219.926L445.211 220.452L444.768 219.716L445.64 219.19L445.037 218.19L445.659 217.5L446.402 218.732L447.573 218.025L448.017 218.761Z" fill="white"/>
<path d="M450.333 219.835C450.647 220.182 451.012 220.382 451.423 220.426C451.834 220.47 452.252 220.37 452.671 220.117C453.253 219.766 453.543 219.3 453.551 218.712L454.422 218.689C454.392 219.605 453.951 220.325 453.087 220.846C452.386 221.268 451.692 221.395 450.988 221.213C450.284 221.031 449.731 220.618 449.329 219.95C448.932 219.292 448.811 218.607 448.976 217.913C449.141 217.219 449.563 216.661 450.239 216.254C450.88 215.867 451.55 215.779 452.225 215.99C452.909 216.196 453.435 216.625 453.822 217.266C453.889 217.378 453.947 217.494 454.003 217.624L450.333 219.835V219.835ZM450.677 216.981C450.266 217.229 449.996 217.555 449.87 217.945C449.744 218.336 449.759 218.747 449.931 219.168L452.865 217.4C452.544 217.022 452.191 216.804 451.796 216.75C451.411 216.69 451.036 216.765 450.677 216.981Z" fill="white"/>
<path d="M426.199 260.205C426.102 261.476 425.472 262.462 424.326 263.152C423.18 263.843 422.022 263.934 420.844 263.431C419.675 262.923 418.639 261.939 417.747 260.459C416.855 258.979 416.46 257.608 416.566 256.331C416.663 255.06 417.293 254.074 418.439 253.384C419.586 252.693 420.743 252.602 421.921 253.105C423.09 253.613 424.126 254.597 425.018 256.077C425.91 257.557 426.296 258.934 426.199 260.205ZM421.249 262.033C422.041 262.419 422.827 262.388 423.589 261.929C424.35 261.47 424.75 260.798 424.782 259.904C424.815 259.01 424.479 257.988 423.778 256.825C423.077 255.661 422.325 254.878 421.519 254.489C420.714 254.1 419.933 254.139 419.171 254.598C418.41 255.057 418.01 255.729 417.986 256.618C417.962 257.507 418.298 258.529 419.01 259.71C419.706 260.864 420.452 261.639 421.249 262.033Z" fill="white"/>
<path d="M428.76 260.236L428.141 259.209L429.419 253.822C429.773 252.396 429.759 251.367 429.377 250.734C429.058 250.203 428.648 249.891 428.142 249.787C427.637 249.684 427.156 249.775 426.694 250.054C425.804 250.59 425.415 251.396 425.523 252.485L424.1 252.503C424.033 251.715 424.166 251.006 424.497 250.375C424.828 249.744 425.317 249.239 425.958 248.853C426.745 248.378 427.584 248.223 428.489 248.389C429.385 248.56 430.099 249.086 430.624 249.959C431.197 250.908 431.264 252.279 430.819 254.074L429.858 257.918L434.11 255.356L434.842 256.571L428.76 260.236V260.236Z" fill="white"/>
<path d="M437.378 256.85L436.687 257.29L434.785 241.96L435.476 241.521L437.378 256.85Z" fill="white"/>
<path d="M443.366 243.857C444.167 243.561 444.942 243.513 445.69 243.727C446.445 243.937 447.039 244.418 447.487 245.163C448.039 246.078 448.155 246.987 447.85 247.894C447.546 248.801 446.944 249.524 446.046 250.066C445.327 250.499 444.596 250.718 443.844 250.728C443.093 250.738 442.41 250.496 441.808 250.019L442.489 248.769C443.297 249.471 444.231 249.492 445.317 248.837C445.899 248.487 446.285 248.044 446.473 247.523C446.66 247.002 446.582 246.466 446.252 245.919C445.922 245.371 445.485 245.052 444.931 244.965C444.378 244.879 443.806 245.014 443.224 245.364L442.899 245.56L441.939 245.089L442.348 240.832L438.164 243.353L437.458 242.181L443.104 238.779L443.755 239.879L443.366 243.857Z" fill="white"/>
<path d="M455.883 242.32C455.786 243.591 455.156 244.577 454.009 245.268C452.863 245.958 451.705 246.05 450.528 245.547C449.359 245.038 448.322 244.054 447.431 242.574C446.539 241.094 446.144 239.723 446.249 238.447C446.346 237.176 446.977 236.189 448.123 235.499C449.269 234.808 450.427 234.717 451.604 235.22C452.774 235.728 453.81 236.713 454.702 238.193C455.593 239.672 455.98 241.049 455.883 242.32ZM450.933 244.148C451.725 244.534 452.511 244.503 453.272 244.044C454.034 243.586 454.433 242.914 454.466 242.019C454.498 241.125 454.162 240.103 453.461 238.94C452.76 237.777 452.009 236.994 451.203 236.605C450.397 236.216 449.616 236.255 448.855 236.713C448.093 237.172 447.694 237.844 447.67 238.733C447.646 239.622 447.982 240.644 448.693 241.825C449.381 242.985 450.136 243.754 450.933 244.148Z" fill="white"/>
<path d="M515.271 199.83L512.594 201.443C511.764 201.943 511.27 202.556 511.406 203.594L513.287 218.365L516.931 216.169C516.931 216.169 516.587 214.243 516.517 213.818L520.966 211.138C521.345 211.515 522.534 212.793 522.534 212.793L525.759 210.849L515.271 199.83ZM515.943 210.62C515.782 209.714 515.167 206.236 515.167 206.236C515.167 206.236 515.013 205.303 514.906 204.738L515.801 205.702C515.801 205.702 518.302 208.323 518.817 208.888L515.943 210.62Z" fill="white"/>
<path d="M503.127 211.95C503.479 212.554 504.469 212.494 506.031 212.357C508.579 212.058 510.167 212.604 511.027 214.069C512.594 216.728 511.258 219.853 507.606 222.054C506.047 222.97 504.351 223.56 503.341 223.703L502.107 220.552L502.675 220.489C504.088 220.279 504.951 220.027 506.345 219.187C507.337 218.589 508.169 217.551 507.668 216.699C507.336 216.13 506.64 216.001 504.912 216.191C503.229 216.377 500.871 216.411 499.785 214.57C498.312 212.087 499.692 208.901 503.113 206.839C504.456 206.029 505.708 205.649 506.552 205.501L507.741 208.539L507.346 208.58C506.549 208.709 505.579 208.956 504.46 209.654C503.1 210.473 502.812 211.428 503.127 211.95Z" fill="white"/>
<path d="M495.959 211.455L501.442 225.489L497.986 227.572L492.486 213.547L495.959 211.455Z" fill="white"/>
<path d="M487.453 225.512C484.525 223.265 480.288 222.483 475.483 223.991L475.371 223.709L480.752 220.466C481.494 220.054 482.215 219.934 482.889 220.589L487.453 225.512Z" fill="white"/>
<path d="M491.088 214.402L493.277 230.399L489.607 232.61L480.11 223.874C483.203 223.957 486.468 225.08 488.084 226.252L489.241 227.339L487.405 216.61L491.083 214.393L491.088 214.402Z" fill="white"/>
<path d="M232.177 231.344L209.063 245.271C207.583 246.163 205.636 245.68 204.745 244.2L194.43 227.083C193.539 225.603 194.021 223.657 195.501 222.765L218.615 208.837C220.095 207.945 222.041 208.428 222.933 209.908L233.248 227.025C234.148 228.5 233.665 230.447 232.177 231.344Z" fill="#F6C859"/>
<path d="M215.532 237.273C215.412 237.346 215.251 237.349 215.133 237.269C214.949 237.158 214.899 236.92 215.01 236.737C215.34 236.2 215.717 235.355 215.614 234.332C215.485 233.034 214.696 232.017 214.443 232.041C214.376 232.046 214.241 232.268 214.158 232.4C213.939 232.753 213.64 233.225 213.041 233.352C212.45 233.475 211.948 233.183 211.704 233.05C210.136 232.13 207.755 228.702 207.48 226.465C207.39 225.715 207.534 225.162 207.912 224.783C208.304 224.407 208.785 224.373 209.168 224.352C209.485 224.336 209.645 224.31 209.696 224.221C209.89 223.847 209.201 222.723 208.232 222.083C207.377 221.514 206.448 221.444 205.825 221.493C205.611 221.505 205.432 221.345 205.411 221.136C205.399 220.922 205.56 220.743 205.769 220.722C206.508 220.673 207.617 220.751 208.653 221.445C209.678 222.121 210.876 223.626 210.37 224.584C210.112 225.066 209.617 225.096 209.216 225.128C208.908 225.139 208.632 225.165 208.444 225.337C208.194 225.58 208.199 226.032 208.239 226.37C208.479 228.336 210.701 231.579 212.087 232.388C212.322 232.526 212.593 232.666 212.87 232.604C213.139 232.547 213.287 232.329 213.494 231.995C213.697 231.674 213.919 231.307 214.365 231.272C215.317 231.188 216.233 232.805 216.374 234.259C216.498 235.49 216.055 236.515 215.665 237.146C215.63 237.203 215.583 237.243 215.532 237.273Z" fill="#7D662D"/>
<path d="M207.98 226.981L202.035 230.564C201.855 230.672 201.613 230.619 201.5 230.431C201.392 230.252 201.444 230.01 201.632 229.897L207.578 226.314C207.757 226.206 207.999 226.259 208.112 226.447C208.226 226.635 208.159 226.873 207.98 226.981Z" fill="#7D662D"/>
<path d="M211.558 232.931L205.613 236.513C205.433 236.621 205.191 236.569 205.078 236.38C204.97 236.201 205.022 235.959 205.211 235.846L211.156 232.263C211.335 232.155 211.577 232.208 211.69 232.396C211.799 232.576 211.737 232.822 211.558 232.931Z" fill="#7D662D"/>
<path d="M222.462 233.1C222.411 233.131 222.354 233.154 222.287 233.159C221.548 233.208 220.439 233.13 219.403 232.436C218.184 231.632 217.183 230.067 217.702 229.264C217.946 228.895 218.369 228.862 218.747 228.832C219.14 228.806 219.402 228.776 219.578 228.565C219.774 228.33 219.76 227.977 219.753 227.772C219.684 226.169 217.855 222.688 216.23 221.558C215.95 221.364 215.544 221.155 215.22 221.256C215.015 221.322 214.795 221.209 214.735 221.012C214.669 220.807 214.782 220.587 214.979 220.527C215.486 220.362 216.056 220.496 216.669 220.932C218.523 222.228 220.444 225.921 220.516 227.743C220.529 228.015 220.552 228.596 220.168 229.061C219.775 229.531 219.21 229.58 218.804 229.603C218.648 229.615 218.381 229.636 218.353 229.688C218.213 229.9 218.745 231.073 219.832 231.793C220.688 232.362 221.616 232.432 222.24 232.383C222.454 232.371 222.632 232.531 222.653 232.74C222.665 232.896 222.582 233.028 222.462 233.1Z" fill="#7D662D"/>
<path d="M213.789 221.688C213.653 221.771 213.473 221.763 213.339 221.657C211.351 219.963 212.026 217.329 212.391 216.736C212.502 216.552 212.74 216.502 212.923 216.613C213.107 216.724 213.157 216.962 213.046 217.146C212.879 217.41 212.145 219.636 213.84 221.075C214.003 221.21 214.022 221.455 213.887 221.618C213.853 221.639 213.824 221.668 213.789 221.688Z" fill="#7D662D"/>
<path d="M222.837 218.032L216.892 221.615C216.712 221.723 216.471 221.67 216.357 221.482C216.249 221.302 216.302 221.061 216.49 220.947L222.435 217.365C222.615 217.257 222.856 217.309 222.97 217.498C223.075 217.691 223.017 217.924 222.837 218.032Z" fill="#7D662D"/>
<path d="M226.421 223.974L220.476 227.556C220.296 227.664 220.055 227.612 219.941 227.423C219.833 227.244 219.886 227.002 220.074 226.889L226.019 223.306C226.199 223.198 226.44 223.251 226.554 223.439C226.653 223.624 226.601 223.865 226.421 223.974Z" fill="#7D662D"/>
<path d="M272.135 353.51C271.405 353.951 270.644 354.217 269.852 354.309C269.07 354.394 268.322 354.288 267.607 353.991L267.939 351.806C268.518 352.051 269.059 352.17 269.561 352.165C270.074 352.152 270.554 352.011 271.001 351.741C272.188 351.024 272.358 349.963 271.509 348.557L267.936 342.639L263.865 345.097L262.79 343.315L268.985 339.574L273.565 347.159C274.381 348.51 274.657 349.719 274.394 350.785C274.142 351.845 273.389 352.753 272.135 353.51ZM282.672 347.081C281.778 347.621 280.867 347.91 279.94 347.95C279.005 347.979 278.132 347.777 277.321 347.345C276.51 346.913 275.844 346.266 275.325 345.405C274.798 344.533 274.536 343.643 274.538 342.735C274.533 341.816 274.764 340.955 275.231 340.152C275.698 339.35 276.379 338.679 277.272 338.139C278.177 337.593 279.093 337.3 280.021 337.26C280.96 337.214 281.826 337.405 282.62 337.833C283.424 338.254 284.093 338.906 284.626 339.789C285.146 340.65 285.408 341.54 285.413 342.459C285.429 343.371 285.201 344.238 284.729 345.058C284.262 345.86 283.576 346.535 282.672 347.081ZM281.616 345.332C282.117 345.029 282.498 344.65 282.759 344.195C283.019 343.741 283.134 343.24 283.102 342.695C283.08 342.142 282.902 341.588 282.566 341.032C282.224 340.466 281.817 340.05 281.345 339.785C280.877 339.502 280.381 339.37 279.857 339.389C279.333 339.408 278.825 339.566 278.335 339.862C277.834 340.165 277.453 340.543 277.192 340.998C276.942 341.447 276.828 341.947 276.849 342.499C276.864 343.041 277.042 343.595 277.384 344.161C277.72 344.717 278.127 345.133 278.606 345.409C279.085 345.685 279.581 345.817 280.094 345.804C280.618 345.785 281.125 345.628 281.616 345.332ZM288.839 331.155C289.536 330.734 290.24 330.495 290.949 330.439C291.669 330.375 292.359 330.532 293.017 330.908C293.668 331.273 294.261 331.896 294.794 332.779L297.814 337.781L295.771 339.015L292.908 334.275C292.441 333.501 291.907 333.035 291.306 332.877C290.716 332.713 290.094 332.828 289.44 333.223C288.961 333.513 288.595 333.868 288.343 334.287C288.091 334.707 287.98 335.176 288.01 335.693C288.044 336.193 288.239 336.737 288.594 337.326L291.259 341.74L289.216 342.974L281.891 330.844L283.935 329.61L287.409 335.364L286.534 334.911C286.503 334.171 286.688 333.48 287.088 332.837C287.492 332.176 288.076 331.616 288.839 331.155ZM300.029 324.398C300.727 323.977 301.43 323.738 302.14 323.681C302.86 323.618 303.549 323.775 304.208 324.15C304.859 324.515 305.452 325.139 305.985 326.022L309.005 331.024L306.962 332.258L304.099 327.517C303.632 326.744 303.098 326.278 302.497 326.12C301.907 325.956 301.285 326.071 300.631 326.466C300.152 326.756 299.786 327.11 299.534 327.53C299.282 327.95 299.171 328.419 299.201 328.936C299.235 329.436 299.429 329.98 299.785 330.569L302.45 334.982L300.406 336.216L295.135 327.487L297.081 326.312L298.502 328.666L297.725 328.154C297.694 327.414 297.879 326.723 298.279 326.08C298.683 325.419 299.267 324.859 300.029 324.398ZM316.311 326.613L309.402 315.17L314.404 312.149C315.646 311.399 316.881 310.981 318.108 310.894C319.335 310.808 320.466 311.032 321.503 311.566C322.539 312.1 323.406 312.945 324.103 314.1C324.794 315.244 325.138 316.405 325.135 317.582C325.125 318.748 324.796 319.853 324.149 320.899C323.501 321.944 322.556 322.842 321.314 323.592L316.311 326.613ZM317.351 323.531L320.13 321.853C320.991 321.333 321.633 320.722 322.057 320.02C322.491 319.312 322.7 318.561 322.683 317.769C322.676 316.97 322.436 316.178 321.962 315.393C321.482 314.597 320.893 314.016 320.195 313.649C319.502 313.265 318.741 313.1 317.911 313.155C317.092 313.203 316.253 313.487 315.392 314.007L312.613 315.685L317.351 323.531ZM333.613 316.322C332.72 316.861 331.809 317.151 330.881 317.191C329.947 317.219 329.074 317.018 328.263 316.585C327.451 316.153 326.786 315.507 326.266 314.646C325.74 313.774 325.477 312.884 325.479 311.976C325.474 311.056 325.705 310.195 326.173 309.393C326.64 308.59 327.32 307.919 328.214 307.38C329.118 306.833 330.035 306.54 330.962 306.501C331.901 306.454 332.767 306.645 333.561 307.073C334.366 307.494 335.035 308.146 335.568 309.029C336.087 309.89 336.35 310.78 336.354 311.699C336.37 312.612 336.142 313.478 335.671 314.298C335.204 315.101 334.518 315.775 333.613 316.322ZM332.557 314.572C333.058 314.27 333.439 313.891 333.7 313.436C333.961 312.981 334.075 312.481 334.043 311.935C334.022 311.383 333.843 310.829 333.508 310.273C333.166 309.706 332.758 309.29 332.286 309.025C331.818 308.743 331.322 308.611 330.798 308.63C330.274 308.649 329.767 308.806 329.277 309.103C328.775 309.405 328.394 309.784 328.133 310.239C327.884 310.687 327.769 311.187 327.791 311.74C327.805 312.281 327.984 312.835 328.326 313.402C328.661 313.958 329.069 314.374 329.548 314.65C330.026 314.926 330.522 315.057 331.035 315.045C331.559 315.026 332.067 314.869 332.557 314.572ZM344.329 309.851C343.359 310.437 342.394 310.759 341.434 310.819C340.477 310.861 339.594 310.665 338.783 310.233C337.982 309.795 337.322 309.145 336.802 308.284C336.276 307.412 336.003 306.528 335.983 305.633C335.967 304.721 336.182 303.87 336.627 303.08C337.083 302.284 337.748 301.623 338.619 301.097C339.469 300.583 340.339 300.311 341.227 300.28C342.116 300.249 342.955 300.457 343.744 300.902C344.534 301.347 345.205 302.028 345.757 302.943C345.81 303.03 345.864 303.132 345.919 303.247C345.985 303.356 346.042 303.463 346.09 303.568L338.815 307.96L337.996 306.604L344.192 302.863L343.647 303.771C343.356 303.263 342.986 302.884 342.537 302.635C342.089 302.385 341.608 302.266 341.095 302.278C340.593 302.284 340.097 302.435 339.606 302.731C339.105 303.034 338.73 303.409 338.48 303.858C338.241 304.299 338.131 304.782 338.15 305.306C338.173 305.813 338.343 306.327 338.658 306.851L338.856 307.178C339.172 307.701 339.571 308.091 340.055 308.35C340.538 308.608 341.063 308.715 341.631 308.67C342.198 308.624 342.765 308.431 343.332 308.089C343.822 307.792 344.218 307.45 344.518 307.06C344.818 306.671 345.022 306.22 345.13 305.709L346.985 306.307C346.869 307.001 346.587 307.655 346.139 308.267C345.695 308.862 345.092 309.39 344.329 309.851Z" fill="white"/>
</g>
</g>
<defs>
<filter id="filter0_d_904_1408" x="156.451" y="33.282" width="403.321" height="361.16" filterUnits="userSpaceOnUse" color-interpolation-filters="sRGB">
<feFlood flood-opacity="0" result="BackgroundImageFix"/>
<feColorMatrix in="SourceAlpha" type="matrix" values="0 0 0 0 0 0 0 0 0 0 0 0 0 0 0 0 0 0 127 0" result="hardAlpha"/>
<feOffset dy="-3.84522"/>
<feGaussianBlur stdDeviation="4.80653"/>
<feComposite in2="hardAlpha" operator="out"/>
<feColorMatrix type="matrix" values="0 0 0 0 0 0 0 0 0 0 0 0 0 0 0 0 0 0 0.2 0"/>
<feBlend mode="normal" in2="BackgroundImageFix" result="effect1_dropShadow_904_1408"/>
<feBlend mode="normal" in="SourceGraphic" in2="effect1_dropShadow_904_1408" result="shape"/>
</filter>
<linearGradient id="paint0_linear_904_1408" x1="313.249" y1="398.618" x2="402.976" y2="36.7974" gradientUnits="userSpaceOnUse">
<stop stop-color="#FF21DB"/>
<stop offset="1" stop-color="#6C21FF"/>
</linearGradient>
<linearGradient id="paint1_linear_904_1408" x1="313.627" y1="399.152" x2="404.284" y2="38.3813" gradientUnits="userSpaceOnUse">
<stop stop-color="#ED1C24"/>
<stop offset="1" stop-color="#4F339A"/>
</linearGradient>
<clipPath id="clip0_904_1408">
<rect width="293.926" height="160.466" fill="white" transform="translate(191.283 225.307) rotate(-31.0722)"/>
</clipPath>
</defs>
</svg>
