<svg width="224" height="133" viewBox="0 0 224 133" fill="none" xmlns="http://www.w3.org/2000/svg">
<path d="M1.40625 85.8438C1.40625 84.6562 1.875 83.625 2.8125 82.75C3.8125 81.8125 4.5625 81.1875 5.0625 80.875C5.625 80.5 6 80.2188 6.1875 80.0312C6.5 85.7188 10.3438 88.5625 17.7188 88.5625C23.5312 88.5625 30.3125 86.75 38.0625 83.125C43.5625 80.625 47.25 78.0625 49.125 75.4375C49.75 74.625 50.0625 73.9688 50.0625 73.4688C50.0625 72.9062 49.9688 72.4688 49.7812 72.1562L10.875 63.4375C9.75 63.1875 8.65625 62.6562 7.59375 61.8438C5.65625 60.4688 4.6875 59.2188 4.6875 58.0938C4.6875 53.7812 7.75 49.875 13.875 46.375C20.625 42.5625 29.6562 39.6875 40.9688 37.75C43.5312 37.3125 45.4375 37.0625 46.6875 37C47.0625 37.125 47.625 37.25 48.375 37.375C49.1875 37.4375 50 37.5625 50.8125 37.75C52.75 38.1875 53.5625 39 53.25 40.1875C53.25 42.3125 49.1875 44 41.0625 45.25C30.5625 46.8125 24 48.125 21.375 49.1875C18.8125 50.25 16.9375 51.3438 15.75 52.4688C14.625 53.5938 14.0312 54.9375 13.9688 56.5C13.9688 56.8125 14.6875 57.1562 16.125 57.5312C17.5625 57.9062 19.2812 58.375 21.2812 58.9375C23.2812 59.4375 25.875 60.125 29.0625 61C36.8125 63.125 46.3125 65.8125 57.5625 69.0625C58.1875 70.4375 58.5 71.7188 58.5 72.9062C58.5 76.2188 56.5625 79.4062 52.6875 82.4688C48.3125 85.9062 42.25 88.8125 34.5 91.1875C28.0625 93.125 22.9375 94.0938 19.125 94.0938C15.9375 94.0938 12.9062 93.5312 10.0312 92.4062C7.15625 91.2812 5 90.1875 3.5625 89.125C2.125 88.0625 1.40625 86.9688 1.40625 85.8438Z" fill="url(#paint0_linear_579_165)"/>
<path d="M1.40625 85.8438C1.40625 84.6562 1.875 83.625 2.8125 82.75C3.8125 81.8125 4.5625 81.1875 5.0625 80.875C5.625 80.5 6 80.2188 6.1875 80.0312C6.5 85.7188 10.3438 88.5625 17.7188 88.5625C23.5312 88.5625 30.3125 86.75 38.0625 83.125C43.5625 80.625 47.25 78.0625 49.125 75.4375C49.75 74.625 50.0625 73.9688 50.0625 73.4688C50.0625 72.9062 49.9688 72.4688 49.7812 72.1562L10.875 63.4375C9.75 63.1875 8.65625 62.6562 7.59375 61.8438C5.65625 60.4688 4.6875 59.2188 4.6875 58.0938C4.6875 53.7812 7.75 49.875 13.875 46.375C20.625 42.5625 29.6562 39.6875 40.9688 37.75C43.5312 37.3125 45.4375 37.0625 46.6875 37C47.0625 37.125 47.625 37.25 48.375 37.375C49.1875 37.4375 50 37.5625 50.8125 37.75C52.75 38.1875 53.5625 39 53.25 40.1875C53.25 42.3125 49.1875 44 41.0625 45.25C30.5625 46.8125 24 48.125 21.375 49.1875C18.8125 50.25 16.9375 51.3438 15.75 52.4688C14.625 53.5938 14.0312 54.9375 13.9688 56.5C13.9688 56.8125 14.6875 57.1562 16.125 57.5312C17.5625 57.9062 19.2812 58.375 21.2812 58.9375C23.2812 59.4375 25.875 60.125 29.0625 61C36.8125 63.125 46.3125 65.8125 57.5625 69.0625C58.1875 70.4375 58.5 71.7188 58.5 72.9062C58.5 76.2188 56.5625 79.4062 52.6875 82.4688C48.3125 85.9062 42.25 88.8125 34.5 91.1875C28.0625 93.125 22.9375 94.0938 19.125 94.0938C15.9375 94.0938 12.9062 93.5312 10.0312 92.4062C7.15625 91.2812 5 90.1875 3.5625 89.125C2.125 88.0625 1.40625 86.9688 1.40625 85.8438Z" fill="url(#paint1_linear_579_165)"/>
<path d="M65.75 70.5156L65.6562 58.8438L69.4062 58.9844L68.9844 86.4531L93.6875 87.1562C94.1875 87.3125 94.4375 87.5781 94.4375 87.9531C94.4375 88.3281 94.2031 88.7188 93.7344 89.125C92.8281 89.9375 91.7969 90.3438 90.6406 90.3438C90.3594 90.3438 90.0625 90.3125 89.75 90.25L64.5781 90.0156C65.3594 87.1094 65.75 80.6094 65.75 70.5156ZM120.969 73.8438H122.281C122.812 73.8438 123.312 73.8906 123.781 73.9844C124.281 74.0781 124.531 74.4219 124.531 75.0156C124.75 76.2656 124.016 76.875 122.328 76.8438C121.859 76.8125 121.422 76.7812 121.016 76.75C120.641 76.7188 120.328 76.7188 120.078 76.75C119.828 76.75 119.719 76.8281 119.75 76.9844C120.062 77.8906 120.391 78.9062 120.734 80.0312C121.109 81.1562 121.516 82.2812 121.953 83.4062C123.078 86.1875 124.141 88.1875 125.141 89.4062C124.609 90.0625 123.984 90.6094 123.266 91.0469C122.578 91.4844 122.203 91.7031 122.141 91.7031C122.109 91.7031 122.078 91.6875 122.047 91.6562L115.438 77.7344L102.641 80.875L102.172 82.8438C101.266 86.4375 100.25 88.9375 99.125 90.3438C98.9375 90.6562 98.5469 90.6875 97.9531 90.4375C96.9531 90.0625 96.4531 89.75 96.4531 89.5C96.4531 89.4375 96.7812 88.5312 97.4375 86.7812C98.0938 85.0312 98.75 83.2656 99.4062 81.4844C100.094 79.6719 100.797 77.7812 101.516 75.8125C102.266 73.8438 102.969 71.9688 103.625 70.1875C104.281 68.4062 104.875 66.8125 105.406 65.4062C105.938 63.9688 106.312 62.9375 106.531 62.3125C106.75 61.6562 106.891 61.0938 106.953 60.625C107.047 60.125 107.172 59.7031 107.328 59.3594C107.641 58.6406 108.422 58.2812 109.672 58.2812C111.016 59.0312 112.047 60.0156 112.766 61.2344C113.516 62.4219 114.141 63.7031 114.641 65.0781C115.172 66.4531 115.688 67.8438 116.188 69.25C116.688 70.6562 117.359 71.9375 118.203 73.0938C118.484 73.5312 118.906 73.7656 119.469 73.7969C120.031 73.8281 120.531 73.8438 120.969 73.8438ZM109.25 63.7188C109 65.625 108.438 67.5781 107.562 69.5781C106.688 71.5781 105.984 73.1406 105.453 74.2656C104.922 75.3594 104.469 76.375 104.094 77.3125C106.219 77.3125 108.828 76.6875 111.922 75.4375C112.703 75.0938 113.453 74.7812 114.172 74.5C112.703 68.2188 111.062 64.625 109.25 63.7188ZM126.688 86.9219C126.688 86.3281 126.922 85.8125 127.391 85.375C127.891 84.9062 128.266 84.5938 128.516 84.4375C128.797 84.25 128.984 84.1094 129.078 84.0156C129.234 86.8594 131.156 88.2812 134.844 88.2812C137.75 88.2812 141.141 87.375 145.016 85.5625C147.766 84.3125 149.609 83.0312 150.547 81.7188C150.859 81.3125 151.016 80.9844 151.016 80.7344C151.016 80.4531 150.969 80.2344 150.875 80.0781L131.422 75.7188C130.859 75.5938 130.312 75.3281 129.781 74.9219C128.812 74.2344 128.328 73.6094 128.328 73.0469C128.328 70.8906 129.859 68.9375 132.922 67.1875C136.297 65.2812 140.812 63.8438 146.469 62.875C147.75 62.6562 148.703 62.5312 149.328 62.5C149.516 62.5625 149.797 62.625 150.172 62.6875C150.578 62.7188 150.984 62.7812 151.391 62.875C152.359 63.0938 152.766 63.5 152.609 64.0938C152.609 65.1562 150.578 66 146.516 66.625C141.266 67.4062 137.984 68.0625 136.672 68.5938C135.391 69.125 134.453 69.6719 133.859 70.2344C133.297 70.7969 133 71.4688 132.969 72.25C132.969 72.4062 133.328 72.5781 134.047 72.7656C134.766 72.9531 135.625 73.1875 136.625 73.4688C137.625 73.7188 138.922 74.0625 140.516 74.5C144.391 75.5625 149.141 76.9062 154.766 78.5312C155.078 79.2188 155.234 79.8594 155.234 80.4531C155.234 82.1094 154.266 83.7031 152.328 85.2344C150.141 86.9531 147.109 88.4062 143.234 89.5938C140.016 90.5625 137.453 91.0469 135.547 91.0469C133.953 91.0469 132.438 90.7656 131 90.2031C129.562 89.6406 128.484 89.0938 127.766 88.5625C127.047 88.0312 126.688 87.4844 126.688 86.9219ZM164.094 77.7812C164 78.8438 163.953 80.3594 163.953 82.3281C163.953 84.2656 164.25 86.625 164.844 89.4062L161.141 91.2812L159.453 78.5312C158.359 78.375 157.812 78 157.812 77.4062C157.812 76.9688 158.062 76.4531 158.562 75.8594C159.094 75.2656 159.484 74.7812 159.734 74.4062C159.984 74 160.125 73.5625 160.156 73.0938C160.219 72.5938 160.297 71.7188 160.391 70.4688C160.484 69.2188 160.562 67.8906 160.625 66.4844C160.719 65.0781 160.797 63.75 160.859 62.5C160.953 61.25 161 60.375 161 59.875C161.688 59.1875 162.188 58.7656 162.5 58.6094C163.281 58.2031 163.812 58.3594 164.094 59.0781L163.812 73.8438C171.531 73.8438 176.172 73.3438 177.734 72.3438V57.5312C177.922 57 178.797 56.7344 180.359 56.7344C180.703 56.7344 180.984 56.75 181.203 56.7812C181.203 57.375 181.219 58.2812 181.25 59.5C181.312 60.6875 181.359 62.0469 181.391 63.5781C181.453 65.1094 181.516 66.7344 181.578 68.4531C181.641 70.1406 181.703 71.75 181.766 73.2812C181.859 76.4688 181.938 78.8125 182 80.3125C182.219 84.0625 182.984 87.0938 184.297 89.4062C182.891 89.9688 181.344 90.25 179.656 90.25C178.219 86.6875 177.453 82.0156 177.359 76.2344C175.297 76.1719 173.891 76.1406 173.141 76.1406C172.391 76.1406 171.547 76.1875 170.609 76.2812C168.672 76.4062 166.5 76.9062 164.094 77.7812ZM190.812 90.25C190.812 90.7812 190.438 91.0469 189.688 91.0469C189.125 91.0469 188.453 90.7812 187.672 90.25C187.297 89.4062 187.109 87.3906 187.109 84.2031C187.109 81.0156 187.141 78.3906 187.203 76.3281C187.266 74.2344 187.328 72.3125 187.391 70.5625C187.578 66.75 187.672 64.7344 187.672 64.5156C188.578 63.9844 189.328 63.7188 189.922 63.7188C190.516 63.7188 190.812 63.9844 190.812 64.5156V90.25ZM216.125 67.9844L211.953 67.8906C210.859 67.8906 209.594 68 208.156 68.2188C208.094 69.4375 207.969 71.0156 207.781 72.9531C207.125 79.8281 206.797 84.2969 206.797 86.3594C206.797 88.3906 206.828 89.8281 206.891 90.6719L202.484 91L203.938 67.8438L193.953 67.2812C193.703 67.2812 193.5 67.0781 193.344 66.6719C193.219 66.2656 193.156 65.8906 193.156 65.5469C193.156 65.2031 193.297 64.8281 193.578 64.4219C193.859 64.0156 194.188 63.8125 194.562 63.8125C196.844 63.9062 199.141 64.0625 201.453 64.2812C205.734 64.6562 209.375 64.8438 212.375 64.8438L215.281 64.75C217.562 64.6875 219.828 64.4375 222.078 64C222.578 64.0938 222.891 64.875 223.016 66.3438C223.047 66.6562 223.062 66.9062 223.062 67.0938C221 67.6875 218.688 67.9844 216.125 67.9844Z" fill="black"/>
<defs>
<linearGradient id="paint0_linear_579_165" x1="27" y1="40" x2="27.5" y2="59.5" gradientUnits="userSpaceOnUse">
<stop stop-color="#FF00D6"/>
<stop offset="1" stop-color="#8000FF"/>
</linearGradient>
<linearGradient id="paint1_linear_579_165" x1="27" y1="40" x2="27.5" y2="59.5" gradientUnits="userSpaceOnUse">
<stop stop-color="#FF00D6"/>
<stop offset="1" stop-color="#8000FF"/>
</linearGradient>
</defs>
</svg>
